<?xml version="1.0" encoding="utf-8"?>
<!-- Generator: Adobe Illustrator 17.0.0, SVG Export Plug-In . SVG Version: 6.00 Build 0)  -->
<!DOCTYPE svg PUBLIC "-//W3C//DTD SVG 1.1//EN" "http://www.w3.org/Graphics/SVG/1.1/DTD/svg11.dtd">
<svg version="1.1" id="Layer_1" xmlns="http://www.w3.org/2000/svg" xmlns:xlink="http://www.w3.org/1999/xlink" x="0px" y="0px"
	 width="144px" height="144px" viewBox="0 0 144 144" enable-background="new 0 0 144 144" xml:space="preserve">
<g>
	<ellipse fill="#333333" cx="72.372" cy="72.687" rx="43.674" ry="43.843"/>
	<ellipse fill="#F7F9F9" cx="72.699" cy="73.287" rx="40.624" ry="40.148"/>
	<g>
		<path fill="#56BEEC" d="M81.098,108.263c-17.046-2.749-28.676-19.065-25.975-36.442c2.7-17.377,18.708-29.235,35.754-26.486
			c7.147,1.153,13.335,4.696,17.921,9.696C102.6,41.952,89.782,32.627,74.544,31.818c-22.259-1.182-41.248,16.249-42.412,38.933
			c-1.164,22.685,15.937,42.033,38.196,43.215c8.745,0.465,16.978-1.953,23.831-6.424C90.027,108.687,85.6,108.989,81.098,108.263z"
			/>
		<path fill="#56BEEC" d="M88.14,107.256c-11.586-0.195-20.822-9.926-20.628-21.733c0.194-11.808,9.743-21.221,21.33-21.026
			c4.864,0.082,9.301,1.86,12.813,4.751c-5.323-8.112-14.709-13.091-24.921-12.17C61.83,58.422,50.815,71.825,52.132,87.013
			s14.466,26.411,29.37,25.066c5.867-0.529,11.125-2.933,15.272-6.572C94.127,106.669,91.21,107.308,88.14,107.256z"/>
		<path fill="#56BEEC" d="M78.316,97.308c-2.609-7.176,0.985-14.987,8.028-17.445c3.908-1.364,8.053-0.788,11.417,1.216
			c-5.062-6.391-13.895-8.764-21.375-5.212c-8.69,4.126-12.248,14.672-7.947,23.555c4.302,8.883,14.834,12.739,23.524,8.612
			c1.17-0.556,2.239-1.236,3.217-2.005C88.301,108.068,80.85,104.277,78.316,97.308z"/>
	</g>
</g>
<g id="schedule" display="none">
	<g display="inline">
		<circle fill="#56BEEC" stroke="#333333" stroke-miterlimit="10" cx="61.424" cy="61.808" r="60"/>
		<rect x="21.535" y="32.012" fill="#ECEDEE" width="79.777" height="60.387"/>
		<rect x="26.295" y="47.689" fill="#FFFFFF" width="6.968" height="6.968"/>
		<rect x="26.295" y="58.721" fill="#FFFFFF" width="6.968" height="6.968"/>
		<rect x="26.295" y="70.001" fill="#FFFFFF" width="6.968" height="6.968"/>
		<rect x="26.295" y="80.453" fill="#FFFFFF" width="6.968" height="6.968"/>
		<rect x="36.747" y="80.453" fill="#FFFFFF" width="6.968" height="6.968"/>
		<rect x="48.069" y="80.453" fill="#FFFFFF" width="6.968" height="6.968"/>
		<rect x="58.811" y="80.453" fill="#FFFFFF" width="6.968" height="6.968"/>
		<rect x="69.843" y="80.453" fill="#FFFFFF" width="6.968" height="6.968"/>
		<rect x="79.714" y="80.453" fill="#FFFFFF" width="6.968" height="6.968"/>
		<rect x="90.456" y="80.453" fill="#FFFFFF" width="6.968" height="6.968"/>
		<rect x="79.714" y="70.001" fill="#FFFFFF" width="6.968" height="6.968"/>
		<rect x="69.843" y="70.001" fill="#FFFFFF" width="6.968" height="6.968"/>
		<rect x="58.811" y="70.001" fill="#FFFFFF" width="6.968" height="6.968"/>
		<rect x="48.069" y="70.001" fill="#FFFFFF" width="6.968" height="6.968"/>
		<rect x="37.327" y="70.001" fill="#FFFFFF" width="6.968" height="6.968"/>
		<rect x="37.327" y="58.721" fill="#FFFFFF" width="6.968" height="6.968"/>
		<rect x="37.327" y="47.689" fill="#FFFFFF" width="6.968" height="6.968"/>
		<rect x="48.069" y="58.721" fill="#FFFFFF" width="6.968" height="6.968"/>
		<rect x="48.069" y="47.689" fill="#FFFFFF" width="6.968" height="6.968"/>
		<rect x="58.811" y="47.689" fill="#FFFFFF" width="6.968" height="6.968"/>
		<rect x="58.811" y="58.721" fill="#FFFFFF" width="6.968" height="6.968"/>
		<rect x="69.843" y="58.721" fill="#FFFFFF" width="6.968" height="6.968"/>
		<rect x="69.843" y="47.689" fill="#FFFFFF" width="6.968" height="6.968"/>
		<rect x="79.714" y="58.721" fill="#FFFFFF" width="6.968" height="6.968"/>
		<rect x="79.714" y="47.689" fill="#FFFFFF" width="6.968" height="6.968"/>
		<rect x="90.456" y="70.001" fill="#FFFFFF" width="6.968" height="6.968"/>
		<rect x="90.456" y="58.721" fill="#FFFFFF" width="6.968" height="6.968"/>
		<rect x="90.456" y="47.689" fill="#FFFFFF" width="6.968" height="6.968"/>
		<text transform="matrix(1 0 0 1 40.8104 43.4934)" fill="#FFFFFF" font-family="'Arvo'" font-size="8.6328">JANUARY</text>
	</g>
</g>
<g id="prices" display="none">
	<g display="inline">
		<circle fill="#56BEEC" stroke="#333333" stroke-miterlimit="10" cx="69.897" cy="66.199" r="60"/>
		
			<rect x="50.269" y="34.015" transform="matrix(0.0043 1 -1 0.0043 129.4981 -4.622)" fill="#F7F9F9" stroke="#333333" stroke-width="0.25" stroke-miterlimit="10" width="33.601" height="57.405"/>
		
			<rect x="52.011" y="35.757" transform="matrix(0.0043 1 -1 0.0043 132.9747 -4.6296)" fill="#F7F9F9" stroke="#333333" stroke-width="0.25" stroke-miterlimit="10" width="33.601" height="57.405"/>
		
			<rect x="53.971" y="37.499" transform="matrix(0.0043 1 -1 0.0043 136.6686 -4.8543)" fill="#F7F9F9" stroke="#333333" stroke-width="0.25" stroke-miterlimit="10" width="33.601" height="57.405"/>
		
			<rect x="55.931" y="39.241" transform="matrix(0.0043 1 -1 0.0043 140.3617 -5.0799)" fill="#F7F9F9" stroke="#333333" stroke-width="0.25" stroke-miterlimit="10" width="33.601" height="57.405"/>
		<ellipse fill="#ECEDEE" cx="70.768" cy="67.07" rx="17.001" ry="12.194"/>
		<text transform="matrix(1 0 0 1 64.0176 74.2218)" fill="#333333" font-family="'Arvo'" font-size="21.1462">$</text>
	</g>
</g>
<g id="free_swim" display="none">
	<g display="inline">
		<circle fill="#56BEEC" stroke="#333333" stroke-miterlimit="10" cx="69.195" cy="72.74" r="60"/>
		<g>
			<path fill="#F7F9F9" d="M74.064,50.545c0,1.932-2.005,3.498-4.478,3.498l0,0c-2.473,0-4.478-1.566-4.478-3.498V36.166
				c0-1.932,2.005-3.498,4.478-3.498l0,0c2.473,0,4.478,1.566,4.478,3.498V50.545z"/>
			<path fill="#F7F9F9" d="M80.49,46.097c0.487,0.94,0.3,2.004-0.418,2.376l0,0c-0.718,0.372-1.694-0.089-2.181-1.029l-4.908-9.474
				c-0.487-0.94-0.3-2.004,0.418-2.376l0,0c0.718-0.372,1.694,0.089,2.181,1.029L80.49,46.097z"/>
			<path fill="#F7F9F9" d="M61.789,47.503c-0.429,0.968-1.375,1.488-2.114,1.161l0,0c-0.739-0.327-0.991-1.377-0.562-2.346
				l4.32-9.756c0.429-0.968,1.375-1.488,2.114-1.161l0,0c0.739,0.327,0.991,1.377,0.562,2.346L61.789,47.503z"/>
			<rect x="65.109" y="32.247" fill="#56BEEC" width="8.955" height="3.056"/>
			<circle fill="#F7F9F9" cx="69.037" cy="29.243" r="5.44"/>
			<path fill="#F7F9F9" d="M69.037,66.513c0,1.057-0.857,1.913-1.913,1.913l0,0c-1.057,0-1.913-0.857-1.913-1.913v-9.002
				c0-1.057,0.857-1.913,1.913-1.913l0,0c1.057,0,1.913,0.857,1.913,1.913V66.513z"/>
			<path fill="#F7F9F9" d="M74.155,66.513c0,1.057-0.857,1.913-1.913,1.913l0,0c-1.057,0-1.913-0.857-1.913-1.913v-9.002
				c0-1.057,0.857-1.913,1.913-1.913l0,0c1.057,0,1.913,0.857,1.913,1.913V66.513z"/>
			<g>
				<rect x="64.742" y="49.528" fill="#ECEDEE" width="4.763" height="11.024"/>
				<rect x="69.86" y="49.528" fill="#ECEDEE" width="4.763" height="11.024"/>
				
					<rect x="66.502" y="47.819" transform="matrix(-8.132894e-04 -1 1 -8.132894e-04 17.031 122.4849)" fill="#ECEDEE" width="6.412" height="9.829"/>
			</g>
		</g>
		<g>
			<path fill="#F7F9F9" d="M97.423,64.329c0,1.932-2.005,3.498-4.478,3.498l0,0c-2.473,0-4.478-1.566-4.478-3.498V49.951
				c0-1.932,2.005-3.498,4.478-3.498l0,0c2.473,0,4.478,1.566,4.478,3.498V64.329z"/>
			<path fill="#F7F9F9" d="M103.849,59.881c0.487,0.94,0.3,2.004-0.418,2.376l0,0c-0.718,0.372-1.694-0.089-2.181-1.029
				l-4.908-9.474c-0.487-0.94-0.3-2.004,0.418-2.376l0,0c0.718-0.372,1.694,0.089,2.181,1.029L103.849,59.881z"/>
			<path fill="#F7F9F9" d="M85.147,61.288c-0.429,0.968-1.375,1.488-2.114,1.161l0,0c-0.739-0.327-0.991-1.377-0.562-2.346
				l4.32-9.756c0.429-0.968,1.375-1.488,2.114-1.161l0,0c0.739,0.327,0.991,1.377,0.562,2.346L85.147,61.288z"/>
			<rect x="88.468" y="46.032" fill="#56BEEC" width="8.955" height="3.056"/>
			<circle fill="#F7F9F9" cx="92.395" cy="43.028" r="5.44"/>
			<path fill="#F7F9F9" d="M92.395,80.297c0,1.057-0.857,1.913-1.913,1.913l0,0c-1.057,0-1.913-0.857-1.913-1.913v-9.002
				c0-1.057,0.857-1.913,1.913-1.913l0,0c1.057,0,1.913,0.857,1.913,1.913V80.297z"/>
			<path fill="#F7F9F9" d="M97.513,80.297c0,1.057-0.857,1.913-1.913,1.913l0,0c-1.057,0-1.913-0.857-1.913-1.913v-9.002
				c0-1.057,0.857-1.913,1.913-1.913l0,0c1.057,0,1.913,0.857,1.913,1.913V80.297z"/>
			<g>
				<rect x="88.101" y="63.313" fill="#ECEDEE" width="4.763" height="11.024"/>
				<rect x="93.219" y="63.313" fill="#ECEDEE" width="4.763" height="11.024"/>
				
					<rect x="89.861" y="61.604" transform="matrix(-8.132894e-04 -1 1 -8.132894e-04 26.6242 159.6404)" fill="#ECEDEE" width="6.412" height="9.829"/>
			</g>
		</g>
		<g>
			<path fill="#F7F9F9" d="M109.872,70.543c0,1.179-1.224,2.135-2.733,2.135l0,0c-1.509,0-2.733-0.956-2.733-2.135v-8.777
				c0-1.179,1.224-2.135,2.733-2.135l0,0c1.51,0,2.733,0.956,2.733,2.135V70.543z"/>
			<path fill="#F7F9F9" d="M113.795,67.828c0.297,0.574,0.183,1.223-0.255,1.45l0,0c-0.438,0.227-1.034-0.054-1.332-0.628
				l-2.996-5.783c-0.297-0.574-0.183-1.223,0.255-1.45l0,0c0.438-0.227,1.034,0.054,1.332,0.628L113.795,67.828z"/>
			<path fill="#F7F9F9" d="M102.379,68.686c-0.262,0.591-0.84,0.908-1.291,0.708l0,0c-0.451-0.2-0.605-0.841-0.343-1.432
				l2.637-5.956c0.262-0.591,0.84-0.908,1.291-0.708l0,0c0.451,0.2,0.605,0.841,0.343,1.432L102.379,68.686z"/>
			<rect x="104.406" y="59.374" fill="#56BEEC" width="5.466" height="1.865"/>
			<circle fill="#F7F9F9" cx="106.803" cy="57.54" r="3.321"/>
			<path fill="#F7F9F9" d="M106.803,80.29c0,0.645-0.523,1.168-1.168,1.168l0,0c-0.645,0-1.168-0.523-1.168-1.168v-5.495
				c0-0.645,0.523-1.168,1.168-1.168l0,0c0.645,0,1.168,0.523,1.168,1.168V80.29z"/>
			<path fill="#F7F9F9" d="M109.927,80.29c0,0.645-0.523,1.168-1.168,1.168l0,0c-0.645,0-1.168-0.523-1.168-1.168v-5.495
				c0-0.645,0.523-1.168,1.168-1.168l0,0c0.645,0,1.168,0.523,1.168,1.168V80.29z"/>
			<g>
				<rect x="104.182" y="69.922" fill="#ECEDEE" width="2.908" height="6.729"/>
				<rect x="107.306" y="69.922" fill="#ECEDEE" width="2.908" height="6.729"/>
				<rect x="104.213" y="69.922" fill="#ECEDEE" width="6" height="3.914"/>
			</g>
		</g>
		<g>
			<path fill="#F7F9F9" d="M83.558,106.944c0,1.932-2.005,3.498-4.478,3.498l0,0c-2.473,0-4.478-1.566-4.478-3.498V92.565
				c0-1.932,2.005-3.498,4.478-3.498l0,0c2.473,0,4.478,1.566,4.478,3.498V106.944z"/>
			<path fill="#F7F9F9" d="M89.984,102.496c0.487,0.94,0.3,2.004-0.418,2.376l0,0c-0.718,0.372-1.694-0.089-2.181-1.029
				l-4.908-9.474c-0.487-0.94-0.3-2.004,0.418-2.376l0,0c0.718-0.372,1.694,0.089,2.181,1.029L89.984,102.496z"/>
			<path fill="#F7F9F9" d="M71.283,103.903c-0.429,0.968-1.375,1.488-2.114,1.161l0,0c-0.739-0.327-0.991-1.377-0.562-2.346
				l4.32-9.756c0.429-0.968,1.375-1.488,2.114-1.161l0,0c0.739,0.327,0.991,1.377,0.562,2.346L71.283,103.903z"/>
			<rect x="74.603" y="88.647" fill="#56BEEC" width="8.955" height="3.056"/>
			<circle fill="#F7F9F9" cx="78.531" cy="85.642" r="5.44"/>
			<path fill="#F7F9F9" d="M78.531,122.912c0,1.057-0.857,1.913-1.913,1.913l0,0c-1.057,0-1.913-0.857-1.913-1.913v-9.002
				c0-1.057,0.857-1.913,1.913-1.913l0,0c1.057,0,1.913,0.857,1.913,1.913V122.912z"/>
			<path fill="#F7F9F9" d="M83.649,122.912c0,1.057-0.857,1.913-1.913,1.913l0,0c-1.057,0-1.913-0.857-1.913-1.913v-9.002
				c0-1.057,0.857-1.913,1.913-1.913l0,0c1.057,0,1.913,0.857,1.913,1.913V122.912z"/>
			<g>
				<rect x="74.236" y="105.927" fill="#ECEDEE" width="4.763" height="11.024"/>
				<rect x="79.354" y="105.927" fill="#ECEDEE" width="4.763" height="11.024"/>
				
					<rect x="75.997" y="104.219" transform="matrix(-8.132894e-04 -1 1 -8.132894e-04 -29.8663 188.4253)" fill="#ECEDEE" width="6.412" height="9.829"/>
			</g>
		</g>
		<g>
			<path fill="#F7F9F9" d="M55.079,50.414c0,1.934-2.007,3.502-4.483,3.502l0,0c-2.476,0-4.483-1.568-4.483-3.502V36.017
				c0-1.934,2.007-3.502,4.483-3.502l0,0c2.476,0,4.483,1.568,4.483,3.502C55.079,36.017,55.079,50.414,55.079,50.414z"/>
			<path fill="#F7F9F9" d="M61.513,45.96c0.488,0.941,0.3,2.006-0.418,2.379l0,0c-0.719,0.372-1.696-0.089-2.184-1.031l-4.914-9.486
				c-0.488-0.941-0.3-2.006,0.418-2.379l0,0c0.719-0.372,1.696,0.089,2.184,1.031L61.513,45.96z"/>
			<path fill="#F7F9F9" d="M42.789,47.369c-0.429,0.969-1.377,1.49-2.117,1.162l0,0c-0.74-0.328-0.992-1.379-0.563-2.349
				l4.325-9.769c0.429-0.969,1.377-1.49,2.117-1.162l0,0c0.74,0.328,0.992,1.379,0.563,2.349L42.789,47.369z"/>
			<rect x="46.113" y="32.094" fill="#56BEEC" width="8.966" height="3.06"/>
			<circle fill="#F7F9F9" cx="50.045" cy="29.085" r="5.447"/>
			<path fill="#F7F9F9" d="M50.045,66.402c0,1.058-0.858,1.915-1.915,1.915l0,0c-1.058,0-1.915-0.858-1.915-1.915v-9.013
				c0-1.058,0.858-1.915,1.915-1.915l0,0c1.058,0,1.915,0.858,1.915,1.915V66.402z"/>
			<path fill="#F7F9F9" d="M55.17,66.402c0,1.058-0.858,1.915-1.915,1.915l0,0c-1.058,0-1.915-0.858-1.915-1.915v-9.013
				c0-1.058,0.858-1.915,1.915-1.915l0,0c1.058,0,1.915,0.858,1.915,1.915V66.402z"/>
			<path fill="#ECEDEE" d="M55.079,53.398c0,1.545-2.007,2.797-4.483,2.797l0,0c-2.476,0-4.483-1.252-4.483-2.797v-11.5
				c0-1.545,2.007-2.797,4.483-2.797l0,0c2.476,0,4.483,1.252,4.483,2.797C55.079,41.898,55.079,53.398,55.079,53.398z"/>
			<path fill="#ECEDEE" d="M48.58,40.204c0,0.249-0.202,0.45-0.45,0.45l0,0c-0.249,0-0.45-0.202-0.45-0.45v-4.806
				c0-0.249,0.202-0.45,0.45-0.45l0,0c0.249,0,0.45,0.202,0.45,0.45V40.204z"/>
			<path fill="#ECEDEE" d="M53.254,40.204c0,0.249-0.202,0.45-0.45,0.45l0,0c-0.249,0-0.45-0.202-0.45-0.45v-4.806
				c0-0.249,0.202-0.45,0.45-0.45l0,0c0.249,0,0.45,0.202,0.45,0.45V40.204z"/>
		</g>
		<g>
			<path fill="#F7F9F9" d="M33.854,80.541c0,1.934-2.007,3.502-4.483,3.502l0,0c-2.476,0-4.483-1.568-4.483-3.502V66.145
				c0-1.934,2.007-3.502,4.483-3.502l0,0c2.476,0,4.483,1.568,4.483,3.502V80.541z"/>
			<path fill="#F7F9F9" d="M40.288,76.088c0.488,0.941,0.3,2.006-0.418,2.379l0,0c-0.719,0.372-1.696-0.089-2.184-1.031
				l-4.914-9.486c-0.488-0.941-0.3-2.006,0.418-2.379l0,0c0.719-0.372,1.696,0.089,2.184,1.031L40.288,76.088z"/>
			<path fill="#F7F9F9" d="M21.564,77.496c-0.429,0.969-1.377,1.49-2.117,1.162l0,0c-0.74-0.328-0.992-1.379-0.563-2.349
				l4.325-9.769c0.429-0.969,1.377-1.49,2.117-1.162l0,0c0.74,0.328,0.992,1.379,0.563,2.349L21.564,77.496z"/>
			<rect x="24.888" y="62.221" fill="#56BEEC" width="8.966" height="3.06"/>
			<circle fill="#F7F9F9" cx="28.821" cy="59.213" r="5.447"/>
			<path fill="#F7F9F9" d="M28.821,96.529c0,1.058-0.858,1.915-1.915,1.915l0,0c-1.058,0-1.915-0.858-1.915-1.915v-9.013
				c0-1.058,0.858-1.915,1.915-1.915l0,0c1.058,0,1.915,0.858,1.915,1.915V96.529z"/>
			<path fill="#F7F9F9" d="M33.945,96.529c0,1.058-0.858,1.915-1.915,1.915l0,0c-1.058,0-1.915-0.858-1.915-1.915v-9.013
				c0-1.058,0.858-1.915,1.915-1.915l0,0c1.058,0,1.915,0.858,1.915,1.915V96.529z"/>
			<path fill="#ECEDEE" d="M33.854,83.526c0,1.545-2.007,2.797-4.483,2.797l0,0c-2.476,0-4.483-1.252-4.483-2.797v-11.5
				c0-1.545,2.007-2.797,4.483-2.797l0,0c2.476,0,4.483,1.252,4.483,2.797V83.526z"/>
			<path fill="#ECEDEE" d="M27.355,70.331c0,0.249-0.202,0.45-0.45,0.45l0,0c-0.249,0-0.45-0.202-0.45-0.45v-4.806
				c0-0.249,0.202-0.45,0.45-0.45l0,0c0.249,0,0.45,0.202,0.45,0.45V70.331z"/>
			<path fill="#ECEDEE" d="M32.03,70.331c0,0.249-0.202,0.45-0.45,0.45l0,0c-0.249,0-0.45-0.202-0.45-0.45v-4.806
				c0-0.249,0.202-0.45,0.45-0.45l0,0c0.249,0,0.45,0.202,0.45,0.45V70.331z"/>
		</g>
		<g>
			<path fill="#F7F9F9" d="M61.684,103.536c0,1.934-2.007,3.502-4.483,3.502l0,0c-2.476,0-4.483-1.568-4.483-3.502V89.139
				c0-1.934,2.007-3.502,4.483-3.502l0,0c2.476,0,4.483,1.568,4.483,3.502V103.536z"/>
			<path fill="#F7F9F9" d="M68.118,99.082c0.488,0.941,0.3,2.006-0.418,2.379l0,0c-0.719,0.372-1.696-0.089-2.184-1.031
				l-4.914-9.486c-0.488-0.941-0.3-2.006,0.418-2.379l0,0c0.719-0.372,1.696,0.089,2.184,1.031L68.118,99.082z"/>
			<path fill="#F7F9F9" d="M49.394,100.491c-0.429,0.969-1.377,1.49-2.117,1.162l0,0c-0.74-0.328-0.992-1.379-0.563-2.349
				l4.325-9.769c0.429-0.969,1.377-1.49,2.117-1.162l0,0c0.74,0.328,0.992,1.379,0.563,2.349L49.394,100.491z"/>
			<rect x="52.718" y="85.216" fill="#56BEEC" width="8.966" height="3.06"/>
			<circle fill="#F7F9F9" cx="56.651" cy="82.207" r="5.447"/>
			<path fill="#F7F9F9" d="M56.651,119.524c0,1.058-0.858,1.915-1.915,1.915l0,0c-1.058,0-1.915-0.858-1.915-1.915v-9.013
				c0-1.058,0.858-1.915,1.915-1.915l0,0c1.058,0,1.915,0.858,1.915,1.915V119.524z"/>
			<path fill="#F7F9F9" d="M61.775,119.524c0,1.058-0.858,1.915-1.915,1.915l0,0c-1.058,0-1.915-0.858-1.915-1.915v-9.013
				c0-1.058,0.858-1.915,1.915-1.915l0,0c1.058,0,1.915,0.858,1.915,1.915V119.524z"/>
			<path fill="#ECEDEE" d="M61.684,106.52c0,1.545-2.007,2.797-4.483,2.797l0,0c-2.476,0-4.483-1.252-4.483-2.797v-11.5
				c0-1.545,2.007-2.797,4.483-2.797l0,0c2.476,0,4.483,1.252,4.483,2.797V106.52z"/>
			<path fill="#ECEDEE" d="M55.185,93.326c0,0.249-0.202,0.45-0.45,0.45l0,0c-0.249,0-0.45-0.202-0.45-0.45V88.52
				c0-0.249,0.202-0.45,0.45-0.45l0,0c0.249,0,0.45,0.202,0.45,0.45V93.326z"/>
			<path fill="#ECEDEE" d="M59.859,93.326c0,0.249-0.202,0.45-0.45,0.45l0,0c-0.249,0-0.45-0.202-0.45-0.45V88.52
				c0-0.249,0.202-0.45,0.45-0.45l0,0c0.249,0,0.45,0.202,0.45,0.45V93.326z"/>
		</g>
	</g>
</g>
<g id="Lane_swim" display="none">
	<g display="inline">
		<circle fill="#56BEEC" stroke="#333333" stroke-miterlimit="10" cx="76.836" cy="69.884" r="60"/>
		<g>
			<path fill="#F7F9F9" d="M78.577,23.872c0,1.682-1.363,3.045-3.045,3.045l0,0c-1.682,0-3.045-1.363-3.045-3.045V13.565
				c0-1.682,1.363-3.045,3.045-3.045l0,0c1.682,0,3.045,1.363,3.045,3.045V23.872z"/>
			<path fill="#ECEDEE" d="M78.577,26.918c0,0.328-0.266,0.594-0.594,0.594h-4.902c-0.328,0-0.594-0.266-0.594-0.594l0,0
				c0-0.328,0.266-0.594,0.594-0.594h4.902C78.311,26.323,78.577,26.589,78.577,26.918L78.577,26.918z"/>
			<path fill="#F7F9F9" d="M78.577,40.864c0,1.682-1.363,3.045-3.045,3.045l0,0c-1.682,0-3.045-1.363-3.045-3.045V30.557
				c0-1.682,1.363-3.045,3.045-3.045l0,0c1.682,0,3.045,1.363,3.045,3.045V40.864z"/>
			<path fill="#ECEDEE" d="M78.577,43.91c0,0.328-0.266,0.594-0.594,0.594h-4.902c-0.328,0-0.594-0.266-0.594-0.594l0,0
				c0-0.328,0.266-0.594,0.594-0.594h4.902C78.311,43.315,78.577,43.581,78.577,43.91L78.577,43.91z"/>
			<path fill="#F7F9F9" d="M78.577,57.262c0,1.682-1.363,3.045-3.045,3.045l0,0c-1.682,0-3.045-1.363-3.045-3.045V46.955
				c0-1.682,1.363-3.045,3.045-3.045l0,0c1.682,0,3.045,1.363,3.045,3.045V57.262z"/>
			<path fill="#ECEDEE" d="M78.577,60.307c0,0.328-0.266,0.594-0.594,0.594h-4.902c-0.328,0-0.594-0.266-0.594-0.594l0,0
				c0-0.328,0.266-0.594,0.594-0.594h4.902C78.311,59.713,78.577,59.979,78.577,60.307L78.577,60.307z"/>
			<path fill="#F7F9F9" d="M78.577,73.66c0,1.682-1.363,3.045-3.045,3.045l0,0c-1.682,0-3.045-1.363-3.045-3.045V63.353
				c0-1.682,1.363-3.045,3.045-3.045l0,0c1.682,0,3.045,1.363,3.045,3.045V73.66z"/>
			<path fill="#ECEDEE" d="M78.577,76.705c0,0.328-0.266,0.594-0.594,0.594h-4.902c-0.328,0-0.594-0.266-0.594-0.594l0,0
				c0-0.328,0.266-0.594,0.594-0.594h4.902C78.311,76.111,78.577,76.377,78.577,76.705L78.577,76.705z"/>
			<path fill="#F7F9F9" d="M78.577,90.652c0,1.682-1.363,3.045-3.045,3.045l0,0c-1.682,0-3.045-1.363-3.045-3.045V80.345
				c0-1.682,1.363-3.045,3.045-3.045l0,0c1.682,0,3.045,1.363,3.045,3.045V90.652z"/>
			<path fill="#ECEDEE" d="M78.577,93.697c0,0.328-0.266,0.594-0.594,0.594h-4.902c-0.328,0-0.594-0.266-0.594-0.594l0,0
				c0-0.328,0.266-0.594,0.594-0.594h4.902C78.311,93.103,78.577,93.369,78.577,93.697L78.577,93.697z"/>
			<path fill="#F7F9F9" d="M78.577,124.758c0,1.682-1.363,3.045-3.045,3.045l0,0c-1.682,0-3.045-1.363-3.045-3.045v-10.307
				c0-1.682,1.363-3.045,3.045-3.045l0,0c1.682,0,3.045,1.363,3.045,3.045V124.758z"/>
			<path fill="#ECEDEE" d="M78.577,127.804c0,0.328-0.266,0.594-0.594,0.594h-4.902c-0.328,0-0.594-0.266-0.594-0.594l0,0
				c0-0.328,0.266-0.594,0.594-0.594h4.902C78.311,127.209,78.577,127.475,78.577,127.804L78.577,127.804z"/>
			<path fill="#F7F9F9" d="M78.577,107.644c0,1.682-1.363,3.045-3.045,3.045l0,0c-1.682,0-3.045-1.363-3.045-3.045V97.337
				c0-1.682,1.363-3.045,3.045-3.045l0,0c1.682,0,3.045,1.363,3.045,3.045V107.644z"/>
			<path fill="#ECEDEE" d="M78.577,110.689c0,0.328-0.266,0.594-0.594,0.594h-4.902c-0.328,0-0.594-0.266-0.594-0.594l0,0
				c0-0.328,0.266-0.594,0.594-0.594h4.902C78.311,110.095,78.577,110.361,78.577,110.689L78.577,110.689z"/>
		</g>
		<path fill="#ECEDEE" d="M38.019,44.396c0,0.328-0.266,0.594-0.594,0.594h-4.902c-0.328,0-0.594-0.266-0.594-0.594l0,0
			c0-0.328,0.266-0.594,0.594-0.594h4.902C37.753,43.802,38.019,44.068,38.019,44.396L38.019,44.396z"/>
		<path fill="#ECEDEE" d="M38.019,60.794c0,0.328-0.266,0.594-0.594,0.594h-4.902c-0.328,0-0.594-0.266-0.594-0.594l0,0
			c0-0.328,0.266-0.594,0.594-0.594h4.902C37.753,60.2,38.019,60.466,38.019,60.794L38.019,60.794z"/>
		<path fill="#ECEDEE" d="M38.019,77.192c0,0.328-0.266,0.594-0.594,0.594h-4.902c-0.328,0-0.594-0.266-0.594-0.594l0,0
			c0-0.328,0.266-0.594,0.594-0.594h4.902C37.753,76.597,38.019,76.863,38.019,77.192L38.019,77.192z"/>
		<path fill="#F7F9F9" d="M38.019,41.67c0,1.505-1.363,2.726-3.045,2.726l0,0c-1.682,0-3.045-1.22-3.045-2.726v-9.225
			c0-1.505,1.363-2.726,3.045-2.726l0,0c1.682,0,3.045,1.22,3.045,2.726C38.019,32.445,38.019,41.67,38.019,41.67z"/>
		<path fill="#F7F9F9" d="M38.019,57.749c0,1.682-1.363,3.045-3.045,3.045l0,0c-1.682,0-3.045-1.363-3.045-3.045V47.441
			c0-1.682,1.363-3.045,3.045-3.045l0,0c1.682,0,3.045,1.363,3.045,3.045C38.019,47.441,38.019,57.749,38.019,57.749z"/>
		<path fill="#F7F9F9" d="M38.019,74.146c0,1.682-1.363,3.045-3.045,3.045l0,0c-1.682,0-3.045-1.363-3.045-3.045V63.839
			c0-1.682,1.363-3.045,3.045-3.045l0,0c1.682,0,3.045,1.363,3.045,3.045C38.019,63.839,38.019,74.146,38.019,74.146z"/>
		<path fill="#F7F9F9" d="M38.019,91.138c0,1.682-1.363,3.045-3.045,3.045l0,0c-1.682,0-3.045-1.363-3.045-3.045V80.831
			c0-1.682,1.363-3.045,3.045-3.045l0,0c1.682,0,3.045,1.363,3.045,3.045C38.019,80.831,38.019,91.138,38.019,91.138z"/>
		<path fill="#ECEDEE" d="M38.019,94.184c0,0.328-0.266,0.594-0.594,0.594h-4.902c-0.328,0-0.594-0.266-0.594-0.594l0,0
			c0-0.328,0.266-0.594,0.594-0.594h4.902C37.753,93.589,38.019,93.855,38.019,94.184L38.019,94.184z"/>
		<path fill="#F7F9F9" d="M38.019,107.597c0,1.615-1.363,2.924-3.045,2.924l0,0c-1.682,0-3.045-1.309-3.045-2.924v-9.895
			c0-1.615,1.363-2.924,3.045-2.924l0,0c1.682,0,3.045,1.309,3.045,2.924C38.019,97.702,38.019,107.597,38.019,107.597z"/>
		<path fill="#ECEDEE" d="M117.714,43.303c0,0.349-0.266,0.632-0.594,0.632h-4.902c-0.328,0-0.594-0.283-0.594-0.632l0,0
			c0-0.349,0.266-0.632,0.594-0.632h4.902C117.448,42.671,117.714,42.954,117.714,43.303L117.714,43.303z"/>
		<path fill="#F7F9F9" d="M117.714,57.502c0,1.788-1.363,3.238-3.045,3.238l0,0c-1.682,0-3.045-1.45-3.045-3.238v-10.96
			c0-1.788,1.363-3.238,3.045-3.238l0,0c1.682,0,3.045,1.45,3.045,3.238V57.502z"/>
		<path fill="#ECEDEE" d="M117.714,60.74c0,0.349-0.266,0.632-0.594,0.632h-4.902c-0.328,0-0.594-0.283-0.594-0.632l0,0
			c0-0.349,0.266-0.632,0.594-0.632h4.902C117.448,60.108,117.714,60.391,117.714,60.74L117.714,60.74z"/>
		<path fill="#F7F9F9" d="M117.714,74.939c0,1.788-1.363,3.238-3.045,3.238l0,0c-1.682,0-3.045-1.45-3.045-3.238v-10.96
			c0-1.788,1.363-3.238,3.045-3.238l0,0c1.682,0,3.045,1.45,3.045,3.238V74.939z"/>
		<path fill="#ECEDEE" d="M117.714,78.177c0,0.349-0.266,0.632-0.594,0.632h-4.902c-0.328,0-0.594-0.283-0.594-0.632l0,0
			c0-0.349,0.266-0.632,0.594-0.632h4.902C117.448,77.545,117.714,77.828,117.714,78.177L117.714,78.177z"/>
		<path fill="#F7F9F9" d="M117.714,93.008c0,1.788-1.363,3.238-3.045,3.238l0,0c-1.682,0-3.045-1.45-3.045-3.238v-10.96
			c0-1.788,1.363-3.238,3.045-3.238l0,0c1.682,0,3.045,1.45,3.045,3.238V93.008z"/>
		<path fill="#ECEDEE" d="M117.714,96.246c0,0.349-0.266,0.632-0.594,0.632h-4.902c-0.328,0-0.594-0.283-0.594-0.632l0,0
			c0-0.349,0.266-0.632,0.594-0.632h4.902C117.448,95.614,117.714,95.897,117.714,96.246L117.714,96.246z"/>
		<path fill="#F7F9F9" d="M117.714,111.077c0,1.788-1.363,3.238-3.045,3.238l0,0c-1.682,0-3.045-1.45-3.045-3.238v-10.96
			c0-1.788,1.363-3.238,3.045-3.238l0,0c1.682,0,3.045,1.45,3.045,3.238V111.077z"/>
		<path fill="#F7F9F9" d="M117.714,39.972c0,1.84-1.363,3.331-3.045,3.331l0,0c-1.682,0-3.045-1.492-3.045-3.331V28.696
			c0-1.84,1.363-3.331,3.045-3.331l0,0c1.682,0,3.045,1.492,3.045,3.331V39.972z"/>
	</g>
</g>
<g id="kiddie_pool" display="none">
	<g display="inline">
		<circle fill="#56BEEC" stroke="#333333" stroke-miterlimit="10" cx="66.278" cy="71.298" r="60"/>
		<g>
			<path fill="#F7F9F9" d="M96.834,84.128c0,1.386-1.439,2.51-3.214,2.51l0,0c-1.775,0-3.214-1.124-3.214-2.51v-10.32
				c0-1.386,1.439-2.51,3.214-2.51l0,0c1.775,0,3.214,1.124,3.214,2.51V84.128z"/>
			<path fill="#F7F9F9" d="M101.446,80.936c0.35,0.675,0.215,1.438-0.3,1.705l0,0c-0.515,0.267-1.216-0.064-1.566-0.739l-3.523-6.8
				c-0.35-0.675-0.215-1.438,0.3-1.705l0,0c0.515-0.267,1.216,0.064,1.566,0.739L101.446,80.936z"/>
			<path fill="#F7F9F9" d="M88.024,81.946c-0.308,0.695-0.987,1.068-1.518,0.833l0,0c-0.53-0.235-0.711-0.989-0.403-1.684l3.1-7.003
				c0.308-0.695,0.987-1.068,1.518-0.833l0,0c0.53,0.235,0.711,0.989,0.403,1.684L88.024,81.946z"/>
			<rect x="90.407" y="70.996" fill="#56BEEC" width="6.427" height="2.193"/>
			<circle fill="#F7F9F9" cx="93.226" cy="68.839" r="3.905"/>
			<path fill="#F7F9F9" d="M93.226,95.589c0,0.758-0.615,1.373-1.373,1.373l0,0c-0.758,0-1.373-0.615-1.373-1.373v-6.461
				c0-0.758,0.615-1.373,1.373-1.373l0,0c0.758,0,1.373,0.615,1.373,1.373V95.589z"/>
			<path fill="#F7F9F9" d="M96.899,95.589c0,0.758-0.615,1.373-1.373,1.373l0,0c-0.758,0-1.373-0.615-1.373-1.373v-6.461
				c0-0.758,0.615-1.373,1.373-1.373l0,0c0.758,0,1.373,0.615,1.373,1.373V95.589z"/>
			<g>
				<rect x="90.143" y="83.399" fill="#ECEDEE" width="3.419" height="7.913"/>
				<rect x="93.817" y="83.399" fill="#ECEDEE" width="3.419" height="7.913"/>
				<rect x="90.18" y="83.399" fill="#ECEDEE" width="7.055" height="4.602"/>
			</g>
		</g>
		<g>
			<path fill="#F7F9F9" d="M39.5,82.716c0,1.634-1.696,2.959-3.787,2.959l0,0c-2.092,0-3.787-1.325-3.787-2.959V70.553
				c0-1.634,1.696-2.959,3.787-2.959l0,0c2.092,0,3.787,1.325,3.787,2.959V82.716z"/>
			<path fill="#F7F9F9" d="M44.935,78.953c0.412,0.795,0.254,1.695-0.353,2.009l0,0c-0.607,0.314-1.433-0.075-1.845-0.871
				l-4.152-8.014c-0.412-0.795-0.254-1.695,0.353-2.009l0,0c0.607-0.314,1.433,0.075,1.845,0.871L44.935,78.953z"/>
			<path fill="#F7F9F9" d="M29.116,80.143c-0.363,0.819-1.163,1.259-1.789,0.982l0,0c-0.625-0.277-0.838-1.165-0.475-1.984
				l3.654-8.253c0.363-0.819,1.163-1.259,1.789-0.982l0,0c0.625,0.277,0.838,1.165,0.475,1.984L29.116,80.143z"/>
			<rect x="31.925" y="67.239" fill="#56BEEC" width="7.575" height="2.585"/>
			<circle fill="#F7F9F9" cx="35.247" cy="64.697" r="4.602"/>
			<path fill="#F7F9F9" d="M35.247,96.223c0,0.894-0.725,1.618-1.618,1.618l0,0c-0.894,0-1.618-0.725-1.618-1.618v-7.615
				c0-0.894,0.725-1.618,1.618-1.618l0,0c0.894,0,1.618,0.725,1.618,1.618V96.223z"/>
			<path fill="#F7F9F9" d="M39.576,96.223c0,0.894-0.725,1.618-1.618,1.618l0,0c-0.894,0-1.618-0.725-1.618-1.618v-7.615
				c0-0.894,0.725-1.618,1.618-1.618l0,0c0.894,0,1.618,0.725,1.618,1.618V96.223z"/>
			<g>
				<rect x="31.615" y="81.856" fill="#ECEDEE" width="4.029" height="9.325"/>
				<rect x="35.944" y="81.856" fill="#ECEDEE" width="4.029" height="9.325"/>
				<rect x="31.658" y="81.856" fill="#ECEDEE" width="8.314" height="5.424"/>
			</g>
		</g>
		<g>
			<path fill="#F7F9F9" d="M77.293,73.538c0,2.747-2.85,4.973-6.367,4.973l0,0c-3.516,0-6.367-2.227-6.367-4.973V53.093
				c0-2.747,2.85-4.973,6.367-4.973l0,0c3.516,0,6.367,2.227,6.367,4.973V73.538z"/>
			<path fill="#F7F9F9" d="M86.43,67.214c0.693,1.337,0.427,2.849-0.594,3.378l0,0c-1.02,0.529-2.409-0.127-3.102-1.463
				l-6.979-13.471c-0.693-1.337-0.427-2.849,0.594-3.378l0,0c1.02-0.529,2.409,0.127,3.102,1.463L86.43,67.214z"/>
			<path fill="#F7F9F9" d="M59.839,69.214c-0.61,1.377-1.956,2.116-3.006,1.65l0,0c-1.051-0.465-1.409-1.959-0.799-3.335
				l6.142-13.873c0.61-1.377,1.956-2.116,3.006-1.65l0,0c1.051,0.465,1.409,1.959,0.799,3.335L59.839,69.214z"/>
			<rect x="64.559" y="47.521" fill="#56BEEC" width="12.733" height="4.345"/>
			<circle fill="#F7F9F9" cx="70.144" cy="43.249" r="7.736"/>
			<path fill="#F7F9F9" d="M70.144,96.243c0,1.502-1.218,2.72-2.72,2.72l0,0c-1.502,0-2.72-1.218-2.72-2.72v-12.8
				c0-1.502,1.218-2.72,2.72-2.72l0,0c1.502,0,2.72,1.218,2.72,2.72V96.243z"/>
			<path fill="#F7F9F9" d="M77.421,96.243c0,1.502-1.218,2.72-2.72,2.72l0,0c-1.502,0-2.72-1.218-2.72-2.72v-12.8
				c0-1.502,1.218-2.72,2.72-2.72l0,0c1.502,0,2.72,1.218,2.72,2.72V96.243z"/>
			<path fill="#ECEDEE" d="M77.293,77.777c0,2.194-2.85,3.973-6.367,3.973l0,0c-3.516,0-6.367-1.779-6.367-3.973V61.445
				c0-2.194,2.85-3.973,6.367-3.973l0,0c3.516,0,6.367,1.779,6.367,3.973V77.777z"/>
			<path fill="#ECEDEE" d="M68.063,59.039c0,0.353-0.286,0.639-0.639,0.639l0,0c-0.353,0-0.639-0.286-0.639-0.639v-6.826
				c0-0.353,0.286-0.639,0.639-0.639l0,0c0.353,0,0.639,0.286,0.639,0.639V59.039z"/>
			<path fill="#ECEDEE" d="M74.701,59.039c0,0.353-0.286,0.639-0.639,0.639l0,0c-0.353,0-0.639-0.286-0.639-0.639v-6.826
				c0-0.353,0.286-0.639,0.639-0.639l0,0c0.353,0,0.639,0.286,0.639,0.639V59.039z"/>
		</g>
		<g>
			<path fill="#F7F9F9" d="M55.261,82.83c0,1.451-1.506,2.627-3.363,2.627l0,0c-1.857,0-3.363-1.176-3.363-2.627v-10.8
				c0-1.451,1.506-2.627,3.363-2.627l0,0c1.857,0,3.363,1.176,3.363,2.627V82.83z"/>
			<path fill="#F7F9F9" d="M60.088,79.489c0.366,0.706,0.225,1.505-0.314,1.784l0,0c-0.539,0.279-1.273-0.067-1.638-0.773
				l-3.686-7.116c-0.366-0.706-0.225-1.505,0.314-1.784l0,0c0.539-0.279,1.273,0.067,1.638,0.773L60.088,79.489z"/>
			<path fill="#F7F9F9" d="M46.041,80.546c-0.322,0.727-1.033,1.118-1.588,0.872l0,0c-0.555-0.246-0.744-1.035-0.422-1.762
				l3.245-7.328c0.322-0.727,1.033-1.118,1.588-0.872l0,0c0.555,0.246,0.744,1.035,0.422,1.762L46.041,80.546z"/>
			<rect x="48.535" y="69.087" fill="#56BEEC" width="6.726" height="2.295"/>
			<circle fill="#F7F9F9" cx="51.485" cy="66.83" r="4.086"/>
			<path fill="#F7F9F9" d="M51.485,94.823c0,0.794-0.643,1.437-1.437,1.437l0,0c-0.794,0-1.437-0.643-1.437-1.437v-6.761
				c0-0.794,0.643-1.437,1.437-1.437l0,0c0.794,0,1.437,0.643,1.437,1.437V94.823z"/>
			<path fill="#F7F9F9" d="M55.329,94.823c0,0.794-0.643,1.437-1.437,1.437l0,0c-0.794,0-1.437-0.643-1.437-1.437v-6.761
				c0-0.794,0.643-1.437,1.437-1.437l0,0c0.794,0,1.437,0.643,1.437,1.437V94.823z"/>
			<path fill="#ECEDEE" d="M55.261,85.069c0,1.159-1.506,2.098-3.363,2.098l0,0c-1.857,0-3.363-0.94-3.363-2.098v-8.627
				c0-1.159,1.506-2.098,3.363-2.098l0,0c1.857,0,3.363,0.94,3.363,2.098V85.069z"/>
			<path fill="#ECEDEE" d="M50.386,75.171c0,0.187-0.151,0.338-0.338,0.338l0,0c-0.187,0-0.338-0.151-0.338-0.338v-3.605
				c0-0.187,0.151-0.338,0.338-0.338l0,0c0.187,0,0.338,0.151,0.338,0.338V75.171z"/>
			<path fill="#ECEDEE" d="M53.892,75.171c0,0.187-0.151,0.338-0.338,0.338l0,0c-0.187,0-0.338-0.151-0.338-0.338v-3.605
				c0-0.187,0.151-0.338,0.338-0.338l0,0c0.187,0,0.338,0.151,0.338,0.338V75.171z"/>
		</g>
	</g>
</g>
</svg>
