<?xml version="1.0" encoding="utf-8"?>
<!-- Generator: Adobe Illustrator 17.0.0, SVG Export Plug-In . SVG Version: 6.00 Build 0)  -->
<!DOCTYPE svg PUBLIC "-//W3C//DTD SVG 1.1//EN" "http://www.w3.org/Graphics/SVG/1.1/DTD/svg11.dtd">
<svg version="1.1" id="Layer_1" xmlns="http://www.w3.org/2000/svg" xmlns:xlink="http://www.w3.org/1999/xlink" x="0px" y="0px"
	 width="144px" height="144px" viewBox="0 0 144 144" enable-background="new 0 0 144 144" xml:space="preserve">
<g id="logo" display="none">
	<ellipse display="inline" fill="#333333" cx="72.372" cy="72.687" rx="43.674" ry="43.843"/>
	<ellipse display="inline" fill="#F7F9F9" cx="72.699" cy="73.287" rx="40.624" ry="40.148"/>
	<g display="inline">
		<path fill="#56BEEC" d="M81.098,108.263c-17.046-2.749-28.676-19.065-25.975-36.442c2.7-17.377,18.708-29.235,35.754-26.486
			c7.147,1.153,13.335,4.696,17.921,9.696C102.6,41.952,89.782,32.627,74.544,31.818c-22.259-1.182-41.248,16.249-42.412,38.933
			c-1.164,22.685,15.937,42.033,38.196,43.215c8.745,0.465,16.978-1.953,23.831-6.424C90.027,108.687,85.6,108.989,81.098,108.263z"
			/>
		<path fill="#56BEEC" d="M88.14,107.256c-11.586-0.195-20.822-9.926-20.628-21.733c0.194-11.808,9.743-21.221,21.33-21.026
			c4.864,0.082,9.301,1.86,12.813,4.751c-5.323-8.112-14.709-13.091-24.921-12.17C61.83,58.422,50.815,71.825,52.132,87.013
			s14.466,26.411,29.37,25.066c5.867-0.529,11.125-2.933,15.272-6.572C94.127,106.669,91.21,107.308,88.14,107.256z"/>
		<path fill="#56BEEC" d="M78.316,97.308c-2.609-7.176,0.985-14.987,8.028-17.445c3.908-1.364,8.053-0.788,11.417,1.216
			c-5.062-6.391-13.895-8.764-21.375-5.212c-8.69,4.126-12.248,14.672-7.947,23.555c4.302,8.883,14.834,12.739,23.524,8.612
			c1.17-0.556,2.239-1.236,3.217-2.005C88.301,108.068,80.85,104.277,78.316,97.308z"/>
	</g>
</g>
<g id="schedule" display="none">
	<g display="inline">
		<circle fill="#56BEEC" stroke="#333333" stroke-miterlimit="10" cx="71.833" cy="72" r="40"/>
		<rect x="45.241" y="52.136" fill="#ECEDEE" width="53.185" height="40.258"/>
		<rect x="48.414" y="62.588" fill="#FFFFFF" width="4.645" height="4.645"/>
		<rect x="48.414" y="69.942" fill="#FFFFFF" width="4.645" height="4.645"/>
		<rect x="48.414" y="77.462" fill="#FFFFFF" width="4.645" height="4.645"/>
		<rect x="48.414" y="84.43" fill="#FFFFFF" width="4.645" height="4.645"/>
		<rect x="55.382" y="84.43" fill="#FFFFFF" width="4.645" height="4.645"/>
		<rect x="62.93" y="84.43" fill="#FFFFFF" width="4.645" height="4.645"/>
		<rect x="70.091" y="84.43" fill="#FFFFFF" width="4.645" height="4.645"/>
		<rect x="77.446" y="84.43" fill="#FFFFFF" width="4.645" height="4.645"/>
		<rect x="84.027" y="84.43" fill="#FFFFFF" width="4.645" height="4.645"/>
		<rect x="91.188" y="84.43" fill="#FFFFFF" width="4.645" height="4.645"/>
		<rect x="84.027" y="77.462" fill="#FFFFFF" width="4.645" height="4.645"/>
		<rect x="77.446" y="77.462" fill="#FFFFFF" width="4.645" height="4.645"/>
		<rect x="70.091" y="77.462" fill="#FFFFFF" width="4.645" height="4.645"/>
		<rect x="62.93" y="77.462" fill="#FFFFFF" width="4.645" height="4.645"/>
		<rect x="55.769" y="77.462" fill="#FFFFFF" width="4.645" height="4.645"/>
		<rect x="55.769" y="69.942" fill="#FFFFFF" width="4.645" height="4.645"/>
		<rect x="55.769" y="62.588" fill="#FFFFFF" width="4.645" height="4.645"/>
		<rect x="62.93" y="69.942" fill="#FFFFFF" width="4.645" height="4.645"/>
		<rect x="62.93" y="62.588" fill="#FFFFFF" width="4.645" height="4.645"/>
		<rect x="70.091" y="62.588" fill="#FFFFFF" width="4.645" height="4.645"/>
		<rect x="70.091" y="69.942" fill="#FFFFFF" width="4.645" height="4.645"/>
		<rect x="77.446" y="69.942" fill="#FFFFFF" width="4.645" height="4.645"/>
		<rect x="77.446" y="62.588" fill="#FFFFFF" width="4.645" height="4.645"/>
		<rect x="84.027" y="69.942" fill="#FFFFFF" width="4.645" height="4.645"/>
		<rect x="84.027" y="62.588" fill="#FFFFFF" width="4.645" height="4.645"/>
		<rect x="91.188" y="77.462" fill="#FFFFFF" width="4.645" height="4.645"/>
		<rect x="91.188" y="69.942" fill="#FFFFFF" width="4.645" height="4.645"/>
		<rect x="91.188" y="62.588" fill="#FFFFFF" width="4.645" height="4.645"/>
		<text transform="matrix(1 0 0 1 58.0908 59.791)" fill="#FFFFFF" font-family="'Arvo'" font-size="5.7552">JANUARY</text>
	</g>
</g>
<circle fill="#56BEEC" stroke="#333333" stroke-width="3" stroke-miterlimit="10" cx="69.897" cy="66.199" r="44"/>
<rect x="55.506" y="42.599" transform="matrix(0.0043 1 -1 0.0043 131.1813 -4.4516)" fill="#F7F9F9" stroke="#333333" stroke-width="0.25" stroke-miterlimit="10" width="24.641" height="42.097"/>
<rect x="56.783" y="43.876" transform="matrix(0.0043 1 -1 0.0043 133.7308 -4.4572)" fill="#F7F9F9" stroke="#333333" stroke-width="0.25" stroke-miterlimit="10" width="24.641" height="42.097"/>
<rect x="58.22" y="45.154" transform="matrix(0.0043 1 -1 0.0043 136.4394 -4.6223)" fill="#F7F9F9" stroke="#333333" stroke-width="0.25" stroke-miterlimit="10" width="24.641" height="42.097"/>
<rect x="59.658" y="46.431" transform="matrix(0.0043 1 -1 0.0043 139.1478 -4.7876)" fill="#F7F9F9" stroke="#333333" stroke-width="0.25" stroke-miterlimit="10" width="24.641" height="42.097"/>
<ellipse fill="#ECEDEE" cx="70.536" cy="66.838" rx="12.468" ry="8.942"/>
<text transform="matrix(1 0 0 1 65.5859 72.0828)" fill="#333333" font-family="'Arvo'" font-size="15.5074">$</text>
<g id="free_swim" display="none">
	<circle display="inline" fill="#56BEEC" stroke="#333333" stroke-miterlimit="10" cx="69.195" cy="72.74" r="34.444"/>
	<g display="inline">
		<path fill="#F7F9F9" d="M71.99,59.998c0,1.109-1.151,2.008-2.57,2.008l0,0c-1.42,0-2.57-0.899-2.57-2.008v-8.254
			c0-1.109,1.151-2.008,2.57-2.008l0,0c1.42,0,2.57,0.899,2.57,2.008V59.998z"/>
		<path fill="#F7F9F9" d="M75.679,57.445c0.28,0.54,0.172,1.15-0.24,1.364l0,0c-0.412,0.213-0.973-0.051-1.252-0.591l-2.818-5.439
			c-0.28-0.54-0.172-1.15,0.24-1.364l0,0c0.412-0.213,0.973,0.051,1.252,0.591L75.679,57.445z"/>
		<path fill="#F7F9F9" d="M64.943,58.253c-0.246,0.556-0.79,0.854-1.214,0.666l0,0c-0.424-0.188-0.569-0.791-0.323-1.347l2.48-5.601
			c0.246-0.556,0.79-0.854,1.214-0.666l0,0c0.424,0.188,0.569,0.791,0.323,1.347L64.943,58.253z"/>
		<rect x="66.849" y="49.494" fill="#56BEEC" width="5.141" height="1.754"/>
		<circle fill="#F7F9F9" cx="69.104" cy="47.77" r="3.123"/>
		<path fill="#F7F9F9" d="M69.104,69.165c0,0.607-0.492,1.098-1.098,1.098l0,0c-0.607,0-1.098-0.492-1.098-1.098v-5.168
			c0-0.607,0.492-1.098,1.098-1.098l0,0c0.607,0,1.098,0.492,1.098,1.098V69.165z"/>
		<path fill="#F7F9F9" d="M72.042,69.165c0,0.607-0.492,1.098-1.098,1.098l0,0c-0.607,0-1.098-0.492-1.098-1.098v-5.168
			c0-0.607,0.492-1.098,1.098-1.098l0,0c0.607,0,1.098,0.492,1.098,1.098V69.165z"/>
		<g>
			<rect x="66.639" y="59.415" fill="#ECEDEE" width="2.734" height="6.329"/>
			<rect x="69.577" y="59.415" fill="#ECEDEE" width="2.734" height="6.329"/>
			<rect x="66.669" y="59.415" fill="#ECEDEE" width="5.643" height="3.681"/>
		</g>
	</g>
	<g display="inline">
		<path fill="#F7F9F9" d="M85.4,67.912c0,1.109-1.151,2.008-2.57,2.008l0,0c-1.42,0-2.57-0.899-2.57-2.008v-8.254
			c0-1.109,1.151-2.008,2.57-2.008l0,0c1.42,0,2.57,0.899,2.57,2.008V67.912z"/>
		<path fill="#F7F9F9" d="M89.089,65.358c0.28,0.54,0.172,1.15-0.24,1.364l0,0c-0.412,0.213-0.973-0.051-1.252-0.591l-2.818-5.439
			c-0.28-0.54-0.172-1.15,0.24-1.364l0,0c0.412-0.213,0.973,0.051,1.252,0.591L89.089,65.358z"/>
		<path fill="#F7F9F9" d="M78.353,66.166c-0.246,0.556-0.79,0.854-1.214,0.666l0,0c-0.424-0.188-0.569-0.791-0.323-1.347l2.48-5.601
			c0.246-0.556,0.79-0.854,1.214-0.666l0,0c0.424,0.188,0.569,0.791,0.323,1.347L78.353,66.166z"/>
		<rect x="80.259" y="57.408" fill="#56BEEC" width="5.141" height="1.754"/>
		<circle fill="#F7F9F9" cx="82.514" cy="55.683" r="3.123"/>
		<path fill="#F7F9F9" d="M82.514,77.079c0,0.607-0.492,1.098-1.098,1.098l0,0c-0.607,0-1.098-0.492-1.098-1.098v-5.168
			c0-0.607,0.492-1.098,1.098-1.098l0,0c0.607,0,1.098,0.492,1.098,1.098V77.079z"/>
		<path fill="#F7F9F9" d="M85.452,77.079c0,0.607-0.492,1.098-1.098,1.098l0,0c-0.607,0-1.098-0.492-1.098-1.098v-5.168
			c0-0.607,0.492-1.098,1.098-1.098l0,0c0.607,0,1.098,0.492,1.098,1.098V77.079z"/>
		<g>
			<rect x="80.048" y="67.328" fill="#ECEDEE" width="2.734" height="6.329"/>
			<rect x="82.986" y="67.328" fill="#ECEDEE" width="2.734" height="6.329"/>
			<rect x="80.078" y="67.328" fill="#ECEDEE" width="5.643" height="3.681"/>
		</g>
	</g>
	<g display="inline">
		<path fill="#F7F9F9" d="M92.547,71.479c0,0.677-0.702,1.226-1.569,1.226l0,0c-0.867,0-1.569-0.549-1.569-1.226V66.44
			c0-0.677,0.702-1.226,1.569-1.226l0,0c0.867,0,1.569,0.549,1.569,1.226V71.479z"/>
		<path fill="#F7F9F9" d="M94.799,69.92c0.171,0.329,0.105,0.702-0.146,0.832l0,0c-0.251,0.13-0.594-0.031-0.764-0.361l-1.72-3.32
			c-0.171-0.329-0.105-0.702,0.146-0.832l0,0c0.251-0.13,0.594,0.031,0.764,0.361L94.799,69.92z"/>
		<path fill="#F7F9F9" d="M88.245,70.413c-0.15,0.339-0.482,0.521-0.741,0.407l0,0c-0.259-0.115-0.347-0.483-0.197-0.822
			l1.514-3.419c0.15-0.339,0.482-0.521,0.741-0.407l0,0c0.259,0.115,0.347,0.483,0.197,0.822L88.245,70.413z"/>
		<rect x="89.409" y="65.067" fill="#56BEEC" width="3.138" height="1.071"/>
		<circle fill="#F7F9F9" cx="90.785" cy="64.014" r="1.906"/>
		<path fill="#F7F9F9" d="M90.785,77.074c0,0.37-0.3,0.67-0.67,0.67l0,0c-0.37,0-0.67-0.3-0.67-0.67V73.92
			c0-0.37,0.3-0.67,0.67-0.67l0,0c0.37,0,0.67,0.3,0.67,0.67V77.074z"/>
		<path fill="#F7F9F9" d="M92.579,77.074c0,0.37-0.3,0.67-0.67,0.67l0,0c-0.37,0-0.67-0.3-0.67-0.67V73.92
			c0-0.37,0.3-0.67,0.67-0.67l0,0c0.37,0,0.67,0.3,0.67,0.67V77.074z"/>
		<g>
			<rect x="89.28" y="71.123" fill="#ECEDEE" width="1.669" height="3.863"/>
			<rect x="91.074" y="71.123" fill="#ECEDEE" width="1.669" height="3.863"/>
			<rect x="89.298" y="71.123" fill="#ECEDEE" width="3.444" height="2.247"/>
		</g>
	</g>
	<g display="inline">
		<path fill="#F7F9F9" d="M77.441,92.376c0,1.109-1.151,2.008-2.57,2.008l0,0c-1.42,0-2.57-0.899-2.57-2.008v-8.254
			c0-1.109,1.151-2.008,2.57-2.008l0,0c1.42,0,2.57,0.899,2.57,2.008V92.376z"/>
		<path fill="#F7F9F9" d="M81.13,89.822c0.28,0.54,0.172,1.15-0.24,1.364l0,0c-0.412,0.213-0.973-0.051-1.252-0.591l-2.818-5.439
			c-0.28-0.54-0.172-1.15,0.24-1.364l0,0c0.412-0.213,0.973,0.051,1.252,0.591L81.13,89.822z"/>
		<path fill="#F7F9F9" d="M70.394,90.63c-0.246,0.556-0.79,0.854-1.214,0.666l0,0c-0.424-0.188-0.569-0.791-0.323-1.347l2.48-5.601
			c0.246-0.556,0.79-0.854,1.214-0.666l0,0c0.424,0.188,0.569,0.791,0.323,1.347L70.394,90.63z"/>
		<rect x="72.3" y="81.872" fill="#56BEEC" width="5.141" height="1.754"/>
		<circle fill="#F7F9F9" cx="74.555" cy="80.147" r="3.123"/>
		<path fill="#F7F9F9" d="M74.555,101.543c0,0.607-0.492,1.098-1.098,1.098l0,0c-0.607,0-1.098-0.492-1.098-1.098v-5.168
			c0-0.607,0.492-1.098,1.098-1.098l0,0c0.607,0,1.098,0.492,1.098,1.098V101.543z"/>
		<path fill="#F7F9F9" d="M77.493,101.543c0,0.607-0.492,1.098-1.098,1.098l0,0c-0.607,0-1.098-0.492-1.098-1.098v-5.168
			c0-0.607,0.492-1.098,1.098-1.098l0,0c0.607,0,1.098,0.492,1.098,1.098V101.543z"/>
		<g>
			<rect x="72.089" y="91.792" fill="#ECEDEE" width="2.734" height="6.329"/>
			<rect x="75.027" y="91.792" fill="#ECEDEE" width="2.734" height="6.329"/>
			<rect x="72.119" y="91.792" fill="#ECEDEE" width="5.643" height="3.681"/>
		</g>
	</g>
	<g display="inline">
		<path fill="#F7F9F9" d="M61.092,59.923c0,1.11-1.152,2.01-2.574,2.01l0,0c-1.421,0-2.574-0.9-2.574-2.01v-8.265
			c0-1.11,1.152-2.01,2.574-2.01l0,0c1.421,0,2.574,0.9,2.574,2.01V59.923z"/>
		<path fill="#F7F9F9" d="M64.785,57.366c0.28,0.54,0.173,1.152-0.24,1.365l0,0c-0.413,0.214-0.974-0.051-1.254-0.592l-2.821-5.446
			c-0.28-0.54-0.173-1.152,0.24-1.365l0,0c0.413-0.214,0.974,0.051,1.254,0.592L64.785,57.366z"/>
		<path fill="#F7F9F9" d="M54.036,58.175c-0.246,0.557-0.791,0.855-1.215,0.667l0,0c-0.425-0.188-0.569-0.792-0.323-1.348
			l2.483-5.608c0.246-0.557,0.791-0.855,1.215-0.667l0,0c0.425,0.188,0.569,0.792,0.323,1.348L54.036,58.175z"/>
		<rect x="55.944" y="49.406" fill="#56BEEC" width="5.147" height="1.757"/>
		<circle fill="#F7F9F9" cx="58.202" cy="47.679" r="3.127"/>
		<path fill="#F7F9F9" d="M58.202,69.101c0,0.607-0.492,1.1-1.1,1.1l0,0c-0.607,0-1.1-0.492-1.1-1.1v-5.174
			c0-0.607,0.492-1.1,1.1-1.1l0,0c0.607,0,1.1,0.492,1.1,1.1V69.101z"/>
		<path fill="#F7F9F9" d="M61.144,69.101c0,0.607-0.492,1.1-1.1,1.1l0,0c-0.607,0-1.1-0.492-1.1-1.1v-5.174
			c0-0.607,0.492-1.1,1.1-1.1l0,0c0.607,0,1.1,0.492,1.1,1.1V69.101z"/>
		<path fill="#ECEDEE" d="M61.092,61.637c0,0.887-1.152,1.606-2.574,1.606l0,0c-1.421,0-2.574-0.719-2.574-1.606v-6.602
			c0-0.887,1.152-1.606,2.574-1.606l0,0c1.421,0,2.574,0.719,2.574,1.606V61.637z"/>
		<path fill="#ECEDEE" d="M57.361,54.062c0,0.143-0.116,0.258-0.258,0.258l0,0c-0.143,0-0.258-0.116-0.258-0.258v-2.759
			c0-0.143,0.116-0.258,0.258-0.258l0,0c0.143,0,0.258,0.116,0.258,0.258V54.062z"/>
		<path fill="#ECEDEE" d="M60.044,54.062c0,0.143-0.116,0.258-0.258,0.258l0,0c-0.143,0-0.258-0.116-0.258-0.258v-2.759
			c0-0.143,0.116-0.258,0.258-0.258l0,0c0.143,0,0.258,0.116,0.258,0.258V54.062z"/>
	</g>
	<g display="inline">
		<path fill="#F7F9F9" d="M48.907,77.219c0,1.11-1.152,2.01-2.574,2.01l0,0c-1.421,0-2.574-0.9-2.574-2.01v-8.265
			c0-1.11,1.152-2.01,2.574-2.01l0,0c1.421,0,2.574,0.9,2.574,2.01V77.219z"/>
		<path fill="#F7F9F9" d="M52.601,74.662c0.28,0.54,0.173,1.152-0.24,1.365l0,0c-0.413,0.214-0.974-0.051-1.254-0.592l-2.821-5.446
			c-0.28-0.54-0.173-1.152,0.24-1.365l0,0c0.413-0.214,0.974,0.051,1.254,0.592L52.601,74.662z"/>
		<path fill="#F7F9F9" d="M41.851,75.471c-0.246,0.557-0.791,0.855-1.215,0.667l0,0c-0.425-0.188-0.569-0.792-0.323-1.348
			l2.483-5.608c0.246-0.557,0.791-0.855,1.215-0.667l0,0c0.425,0.188,0.569,0.792,0.323,1.348L41.851,75.471z"/>
		<rect x="43.76" y="66.702" fill="#56BEEC" width="5.147" height="1.757"/>
		<circle fill="#F7F9F9" cx="46.017" cy="64.975" r="3.127"/>
		<path fill="#F7F9F9" d="M46.017,86.397c0,0.607-0.492,1.1-1.1,1.1l0,0c-0.607,0-1.1-0.492-1.1-1.1v-5.174
			c0-0.607,0.492-1.1,1.1-1.1l0,0c0.607,0,1.1,0.492,1.1,1.1V86.397z"/>
		<path fill="#F7F9F9" d="M48.959,86.397c0,0.607-0.492,1.1-1.1,1.1l0,0c-0.607,0-1.1-0.492-1.1-1.1v-5.174
			c0-0.607,0.492-1.1,1.1-1.1l0,0c0.607,0,1.1,0.492,1.1,1.1V86.397z"/>
		<path fill="#ECEDEE" d="M48.907,78.932c0,0.887-1.152,1.606-2.574,1.606l0,0c-1.421,0-2.574-0.719-2.574-1.606V72.33
			c0-0.887,1.152-1.606,2.574-1.606l0,0c1.421,0,2.574,0.719,2.574,1.606V78.932z"/>
		<path fill="#ECEDEE" d="M45.176,71.357c0,0.143-0.116,0.258-0.258,0.258l0,0c-0.143,0-0.258-0.116-0.258-0.258v-2.759
			c0-0.143,0.116-0.258,0.258-0.258l0,0c0.143,0,0.258,0.116,0.258,0.258V71.357z"/>
		<path fill="#ECEDEE" d="M47.859,71.357c0,0.143-0.116,0.258-0.258,0.258l0,0c-0.143,0-0.258-0.116-0.258-0.258v-2.759
			c0-0.143,0.116-0.258,0.258-0.258l0,0c0.143,0,0.258,0.116,0.258,0.258V71.357z"/>
	</g>
	<g display="inline">
		<path fill="#F7F9F9" d="M64.883,90.419c0,1.11-1.152,2.01-2.574,2.01l0,0c-1.421,0-2.574-0.9-2.574-2.01v-8.265
			c0-1.11,1.152-2.01,2.574-2.01l0,0c1.421,0,2.574,0.9,2.574,2.01V90.419z"/>
		<path fill="#F7F9F9" d="M68.577,87.862c0.28,0.54,0.173,1.152-0.24,1.365l0,0c-0.413,0.214-0.974-0.051-1.254-0.592l-2.821-5.446
			c-0.28-0.54-0.173-1.152,0.24-1.365l0,0c0.413-0.214,0.974,0.051,1.254,0.592L68.577,87.862z"/>
		<path fill="#F7F9F9" d="M57.828,88.671c-0.246,0.557-0.791,0.855-1.215,0.667l0,0c-0.425-0.188-0.569-0.792-0.323-1.348
			l2.483-5.608c0.246-0.557,0.791-0.855,1.215-0.667l0,0c0.425,0.188,0.569,0.792,0.323,1.348L57.828,88.671z"/>
		<rect x="59.736" y="79.902" fill="#56BEEC" width="5.147" height="1.757"/>
		<circle fill="#F7F9F9" cx="61.994" cy="78.175" r="3.127"/>
		<path fill="#F7F9F9" d="M61.994,99.597c0,0.607-0.492,1.1-1.1,1.1l0,0c-0.607,0-1.1-0.492-1.1-1.1v-5.174
			c0-0.607,0.492-1.1,1.1-1.1l0,0c0.607,0,1.1,0.492,1.1,1.1V99.597z"/>
		<path fill="#F7F9F9" d="M64.936,99.597c0,0.607-0.492,1.1-1.1,1.1l0,0c-0.607,0-1.1-0.492-1.1-1.1v-5.174
			c0-0.607,0.492-1.1,1.1-1.1l0,0c0.607,0,1.1,0.492,1.1,1.1V99.597z"/>
		<path fill="#ECEDEE" d="M64.883,92.133c0,0.887-1.152,1.606-2.574,1.606l0,0c-1.421,0-2.574-0.719-2.574-1.606V85.53
			c0-0.887,1.152-1.606,2.574-1.606l0,0c1.421,0,2.574,0.719,2.574,1.606V92.133z"/>
		<path fill="#ECEDEE" d="M61.153,84.558c0,0.143-0.116,0.258-0.258,0.258l0,0c-0.143,0-0.258-0.116-0.258-0.258v-2.759
			c0-0.143,0.116-0.258,0.258-0.258l0,0c0.143,0,0.258,0.116,0.258,0.258V84.558z"/>
		<path fill="#ECEDEE" d="M63.836,84.558c0,0.143-0.116,0.258-0.258,0.258l0,0c-0.143,0-0.258-0.116-0.258-0.258v-2.759
			c0-0.143,0.116-0.258,0.258-0.258l0,0c0.143,0,0.258,0.116,0.258,0.258V84.558z"/>
	</g>
</g>
<g id="Lane_swim" display="none">
	<circle display="inline" fill="#56BEEC" stroke="#333333" stroke-miterlimit="10" cx="76.836" cy="69.884" r="34.444"/>
	<g display="inline">
		<path fill="#F7F9F9" d="M77.836,43.47c0,0.966-0.783,1.748-1.748,1.748l0,0c-0.966,0-1.748-0.783-1.748-1.748v-5.917
			c0-0.966,0.783-1.748,1.748-1.748l0,0c0.966,0,1.748,0.783,1.748,1.748V43.47z"/>
		<path fill="#ECEDEE" d="M77.836,45.218c0,0.188-0.153,0.341-0.341,0.341H74.68c-0.188,0-0.341-0.153-0.341-0.341l0,0
			c0-0.188,0.153-0.341,0.341-0.341h2.814C77.683,44.877,77.836,45.03,77.836,45.218L77.836,45.218z"/>
		<path fill="#F7F9F9" d="M77.836,53.225c0,0.966-0.783,1.748-1.748,1.748l0,0c-0.966,0-1.748-0.783-1.748-1.748v-5.917
			c0-0.966,0.783-1.748,1.748-1.748l0,0c0.966,0,1.748,0.783,1.748,1.748V53.225z"/>
		<path fill="#ECEDEE" d="M77.836,54.973c0,0.188-0.153,0.341-0.341,0.341H74.68c-0.188,0-0.341-0.153-0.341-0.341l0,0
			c0-0.188,0.153-0.341,0.341-0.341h2.814C77.683,54.632,77.836,54.784,77.836,54.973L77.836,54.973z"/>
		<path fill="#F7F9F9" d="M77.836,62.638c0,0.966-0.783,1.748-1.748,1.748l0,0c-0.966,0-1.748-0.783-1.748-1.748v-5.917
			c0-0.966,0.783-1.748,1.748-1.748l0,0c0.966,0,1.748,0.783,1.748,1.748V62.638z"/>
		<path fill="#ECEDEE" d="M77.836,64.386c0,0.188-0.153,0.341-0.341,0.341H74.68c-0.188,0-0.341-0.153-0.341-0.341l0,0
			c0-0.188,0.153-0.341,0.341-0.341h2.814C77.683,64.045,77.836,64.198,77.836,64.386L77.836,64.386z"/>
		<path fill="#F7F9F9" d="M77.836,72.052c0,0.966-0.783,1.748-1.748,1.748l0,0c-0.966,0-1.748-0.783-1.748-1.748v-5.917
			c0-0.966,0.783-1.748,1.748-1.748l0,0c0.966,0,1.748,0.783,1.748,1.748V72.052z"/>
		<path fill="#ECEDEE" d="M77.836,73.8c0,0.188-0.153,0.341-0.341,0.341H74.68c-0.188,0-0.341-0.153-0.341-0.341l0,0
			c0-0.188,0.153-0.341,0.341-0.341h2.814C77.683,73.459,77.836,73.611,77.836,73.8L77.836,73.8z"/>
		<path fill="#F7F9F9" d="M77.836,81.806c0,0.966-0.783,1.748-1.748,1.748l0,0c-0.966,0-1.748-0.783-1.748-1.748v-5.917
			c0-0.966,0.783-1.748,1.748-1.748l0,0c0.966,0,1.748,0.783,1.748,1.748V81.806z"/>
		<path fill="#ECEDEE" d="M77.836,83.555c0,0.188-0.153,0.341-0.341,0.341H74.68c-0.188,0-0.341-0.153-0.341-0.341l0,0
			c0-0.188,0.153-0.341,0.341-0.341h2.814C77.683,83.213,77.836,83.366,77.836,83.555L77.836,83.555z"/>
		<path fill="#F7F9F9" d="M77.836,101.386c0,0.966-0.783,1.748-1.748,1.748l0,0c-0.966,0-1.748-0.783-1.748-1.748v-5.917
			c0-0.966,0.783-1.748,1.748-1.748l0,0c0.966,0,1.748,0.783,1.748,1.748V101.386z"/>
		<path fill="#ECEDEE" d="M77.836,103.134c0,0.188-0.153,0.341-0.341,0.341H74.68c-0.188,0-0.341-0.153-0.341-0.341l0,0
			c0-0.188,0.153-0.341,0.341-0.341h2.814C77.683,102.793,77.836,102.946,77.836,103.134L77.836,103.134z"/>
		<path fill="#F7F9F9" d="M77.836,91.561c0,0.966-0.783,1.748-1.748,1.748l0,0c-0.966,0-1.748-0.783-1.748-1.748v-5.917
			c0-0.966,0.783-1.748,1.748-1.748l0,0c0.966,0,1.748,0.783,1.748,1.748V91.561z"/>
		<path fill="#ECEDEE" d="M77.836,93.309c0,0.188-0.153,0.341-0.341,0.341H74.68c-0.188,0-0.341-0.153-0.341-0.341l0,0
			c0-0.188,0.153-0.341,0.341-0.341h2.814C77.683,92.968,77.836,93.121,77.836,93.309L77.836,93.309z"/>
	</g>
	<path display="inline" fill="#ECEDEE" d="M54.552,55.252c0,0.188-0.153,0.341-0.341,0.341h-2.814c-0.188,0-0.341-0.153-0.341-0.341
		l0,0c0-0.188,0.153-0.341,0.341-0.341h2.814C54.399,54.911,54.552,55.064,54.552,55.252L54.552,55.252z"/>
	<path display="inline" fill="#ECEDEE" d="M54.552,64.666c0,0.188-0.153,0.341-0.341,0.341h-2.814c-0.188,0-0.341-0.153-0.341-0.341
		l0,0c0-0.188,0.153-0.341,0.341-0.341h2.814C54.399,64.324,54.552,64.477,54.552,64.666L54.552,64.666z"/>
	<path display="inline" fill="#ECEDEE" d="M54.552,74.079c0,0.188-0.153,0.341-0.341,0.341h-2.814c-0.188,0-0.341-0.153-0.341-0.341
		l0,0c0-0.188,0.153-0.341,0.341-0.341h2.814C54.399,73.738,54.552,73.891,54.552,74.079L54.552,74.079z"/>
	<path display="inline" fill="#F7F9F9" d="M54.552,53.687c0,0.864-0.783,1.565-1.748,1.565l0,0c-0.966,0-1.748-0.701-1.748-1.565
		v-5.296c0-0.864,0.783-1.565,1.748-1.565l0,0c0.966,0,1.748,0.701,1.748,1.565V53.687z"/>
	<path display="inline" fill="#F7F9F9" d="M54.552,62.917c0,0.966-0.783,1.748-1.748,1.748l0,0c-0.966,0-1.748-0.783-1.748-1.748V57
		c0-0.966,0.783-1.748,1.748-1.748l0,0c0.966,0,1.748,0.783,1.748,1.748V62.917z"/>
	<path display="inline" fill="#F7F9F9" d="M54.552,72.331c0,0.966-0.783,1.748-1.748,1.748l0,0c-0.966,0-1.748-0.783-1.748-1.748
		v-5.917c0-0.966,0.783-1.748,1.748-1.748l0,0c0.966,0,1.748,0.783,1.748,1.748V72.331z"/>
	<path display="inline" fill="#F7F9F9" d="M54.552,82.086c0,0.966-0.783,1.748-1.748,1.748l0,0c-0.966,0-1.748-0.783-1.748-1.748
		v-5.917c0-0.966,0.783-1.748,1.748-1.748l0,0c0.966,0,1.748,0.783,1.748,1.748V82.086z"/>
	<path display="inline" fill="#ECEDEE" d="M54.552,83.834c0,0.188-0.153,0.341-0.341,0.341h-2.814c-0.188,0-0.341-0.153-0.341-0.341
		l0,0c0-0.188,0.153-0.341,0.341-0.341h2.814C54.399,83.493,54.552,83.645,54.552,83.834L54.552,83.834z"/>
	<path display="inline" fill="#F7F9F9" d="M54.552,91.534c0,0.927-0.783,1.678-1.748,1.678l0,0c-0.966,0-1.748-0.751-1.748-1.678
		v-5.681c0-0.927,0.783-1.678,1.748-1.678l0,0c0.966,0,1.748,0.751,1.748,1.678V91.534z"/>
	<path display="inline" fill="#ECEDEE" d="M100.303,54.625c0,0.2-0.153,0.363-0.341,0.363h-2.814c-0.188,0-0.341-0.162-0.341-0.363
		l0,0c0-0.2,0.153-0.363,0.341-0.363h2.814C100.15,54.262,100.303,54.424,100.303,54.625L100.303,54.625z"/>
	<path display="inline" fill="#F7F9F9" d="M100.303,62.776c0,1.027-0.783,1.859-1.748,1.859l0,0c-0.966,0-1.748-0.832-1.748-1.859
		v-6.292c0-1.027,0.783-1.859,1.748-1.859l0,0c0.966,0,1.748,0.832,1.748,1.859V62.776z"/>
	<path display="inline" fill="#ECEDEE" d="M100.303,64.635c0,0.2-0.153,0.363-0.341,0.363h-2.814c-0.188,0-0.341-0.162-0.341-0.363
		l0,0c0-0.2,0.153-0.363,0.341-0.363h2.814C100.15,64.272,100.303,64.434,100.303,64.635L100.303,64.635z"/>
	<path display="inline" fill="#F7F9F9" d="M100.303,72.786c0,1.027-0.783,1.859-1.748,1.859l0,0c-0.966,0-1.748-0.832-1.748-1.859
		v-6.292c0-1.027,0.783-1.859,1.748-1.859l0,0c0.966,0,1.748,0.832,1.748,1.859V72.786z"/>
	<path display="inline" fill="#ECEDEE" d="M100.303,74.645c0,0.2-0.153,0.363-0.341,0.363h-2.814c-0.188,0-0.341-0.162-0.341-0.363
		l0,0c0-0.2,0.153-0.363,0.341-0.363h2.814C100.15,74.282,100.303,74.445,100.303,74.645L100.303,74.645z"/>
	<path display="inline" fill="#F7F9F9" d="M100.303,83.159c0,1.027-0.783,1.859-1.748,1.859l0,0c-0.966,0-1.748-0.832-1.748-1.859
		v-6.292c0-1.027,0.783-1.859,1.748-1.859l0,0c0.966,0,1.748,0.832,1.748,1.859V83.159z"/>
	<path display="inline" fill="#ECEDEE" d="M100.303,85.018c0,0.2-0.153,0.363-0.341,0.363h-2.814c-0.188,0-0.341-0.162-0.341-0.363
		l0,0c0-0.2,0.153-0.363,0.341-0.363h2.814C100.15,84.655,100.303,84.818,100.303,85.018L100.303,85.018z"/>
	<path display="inline" fill="#F7F9F9" d="M100.303,93.532c0,1.027-0.783,1.859-1.748,1.859l0,0c-0.966,0-1.748-0.832-1.748-1.859
		V87.24c0-1.027,0.783-1.859,1.748-1.859l0,0c0.966,0,1.748,0.832,1.748,1.859V93.532z"/>
	<path display="inline" fill="#F7F9F9" d="M100.303,52.712c0,1.056-0.783,1.912-1.748,1.912l0,0c-0.966,0-1.748-0.856-1.748-1.912
		v-6.473c0-1.056,0.783-1.912,1.748-1.912l0,0c0.966,0,1.748,0.856,1.748,1.912V52.712z"/>
</g>
<g id="kiddie_pool" display="none">
	<circle display="inline" fill="#56BEEC" stroke="#333333" stroke-miterlimit="10" cx="63.262" cy="68.338" r="34.444"/>
	<g display="inline">
		<path fill="#F7F9F9" d="M76.171,73.749c0,0.677-0.702,1.226-1.569,1.226l0,0c-0.867,0-1.569-0.549-1.569-1.226V68.71
			c0-0.677,0.702-1.226,1.569-1.226l0,0c0.867,0,1.569,0.549,1.569,1.226V73.749z"/>
		<path fill="#F7F9F9" d="M78.423,72.19c0.171,0.329,0.105,0.702-0.146,0.832l0,0c-0.251,0.13-0.594-0.031-0.764-0.361l-1.72-3.32
			c-0.171-0.329-0.105-0.702,0.146-0.832l0,0c0.251-0.13,0.594,0.031,0.764,0.361L78.423,72.19z"/>
		<path fill="#F7F9F9" d="M71.87,72.683c-0.15,0.339-0.482,0.521-0.741,0.407l0,0c-0.259-0.115-0.347-0.483-0.197-0.822l1.514-3.419
			c0.15-0.339,0.482-0.521,0.741-0.407l0,0c0.259,0.115,0.347,0.483,0.197,0.822L71.87,72.683z"/>
		<rect x="73.033" y="67.337" fill="#56BEEC" width="3.138" height="1.071"/>
		<circle fill="#F7F9F9" cx="74.409" cy="66.284" r="1.906"/>
		<path fill="#F7F9F9" d="M74.409,79.345c0,0.37-0.3,0.67-0.67,0.67l0,0c-0.37,0-0.67-0.3-0.67-0.67V76.19
			c0-0.37,0.3-0.67,0.67-0.67l0,0c0.37,0,0.67,0.3,0.67,0.67V79.345z"/>
		<path fill="#F7F9F9" d="M76.203,79.345c0,0.37-0.3,0.67-0.67,0.67l0,0c-0.37,0-0.67-0.3-0.67-0.67V76.19
			c0-0.37,0.3-0.67,0.67-0.67l0,0c0.37,0,0.67,0.3,0.67,0.67V79.345z"/>
		<g>
			<rect x="72.904" y="73.393" fill="#ECEDEE" width="1.669" height="3.863"/>
			<rect x="74.698" y="73.393" fill="#ECEDEE" width="1.669" height="3.863"/>
			<rect x="72.923" y="73.393" fill="#ECEDEE" width="3.444" height="2.247"/>
		</g>
	</g>
	<g display="inline">
		<path fill="#F7F9F9" d="M48.178,73.059c0,0.798-0.828,1.444-1.849,1.444l0,0c-1.021,0-1.849-0.647-1.849-1.444v-5.938
			c0-0.798,0.828-1.444,1.849-1.444l0,0c1.021,0,1.849,0.647,1.849,1.444V73.059z"/>
		<path fill="#F7F9F9" d="M50.832,71.222c0.201,0.388,0.124,0.828-0.172,0.981l0,0c-0.296,0.154-0.7-0.037-0.901-0.425l-2.027-3.913
			c-0.201-0.388-0.124-0.828,0.172-0.981l0,0c0.296-0.154,0.7,0.037,0.901,0.425L50.832,71.222z"/>
		<path fill="#F7F9F9" d="M43.109,71.803c-0.177,0.4-0.568,0.614-0.873,0.479l0,0c-0.305-0.135-0.409-0.569-0.232-0.969l1.784-4.029
			c0.177-0.4,0.568-0.614,0.873-0.479l0,0c0.305,0.135,0.409,0.569,0.232,0.969L43.109,71.803z"/>
		<rect x="44.48" y="65.503" fill="#56BEEC" width="3.698" height="1.262"/>
		<circle fill="#F7F9F9" cx="46.102" cy="64.262" r="2.247"/>
		<path fill="#F7F9F9" d="M46.102,79.654c0,0.436-0.354,0.79-0.79,0.79l0,0c-0.436,0-0.79-0.354-0.79-0.79v-3.718
			c0-0.436,0.354-0.79,0.79-0.79l0,0c0.436,0,0.79,0.354,0.79,0.79V79.654z"/>
		<path fill="#F7F9F9" d="M48.216,79.654c0,0.436-0.354,0.79-0.79,0.79l0,0c-0.436,0-0.79-0.354-0.79-0.79v-3.718
			c0-0.436,0.354-0.79,0.79-0.79l0,0c0.436,0,0.79,0.354,0.79,0.79V79.654z"/>
		<g>
			<rect x="44.328" y="72.639" fill="#ECEDEE" width="1.967" height="4.553"/>
			<rect x="46.442" y="72.639" fill="#ECEDEE" width="1.967" height="4.553"/>
			<rect x="44.35" y="72.639" fill="#ECEDEE" width="4.059" height="2.648"/>
		</g>
	</g>
	<g display="inline">
		<path fill="#F7F9F9" d="M66.63,68.578c0,1.341-1.392,2.428-3.108,2.428l0,0c-1.717,0-3.108-1.087-3.108-2.428v-9.982
			c0-1.341,1.392-2.428,3.108-2.428l0,0c1.717,0,3.108,1.087,3.108,2.428V68.578z"/>
		<path fill="#F7F9F9" d="M71.091,65.49c0.338,0.653,0.208,1.391-0.29,1.649l0,0c-0.498,0.258-1.176-0.062-1.514-0.715l-3.407-6.577
			c-0.338-0.653-0.208-1.391,0.29-1.649l0,0c0.498-0.258,1.176,0.062,1.514,0.715L71.091,65.49z"/>
		<path fill="#F7F9F9" d="M58.108,66.467c-0.298,0.672-0.955,1.033-1.468,0.806l0,0c-0.513-0.227-0.688-0.956-0.39-1.628
			l2.999-6.773c0.298-0.672,0.955-1.033,1.468-0.806l0,0c0.513,0.227,0.688,0.956,0.39,1.628L58.108,66.467z"/>
		<rect x="60.413" y="55.876" fill="#56BEEC" width="6.217" height="2.122"/>
		<circle fill="#F7F9F9" cx="63.14" cy="53.79" r="3.777"/>
		<path fill="#F7F9F9" d="M63.14,79.664c0,0.734-0.595,1.328-1.328,1.328l0,0c-0.734,0-1.328-0.595-1.328-1.328v-6.249
			c0-0.734,0.595-1.328,1.328-1.328l0,0c0.734,0,1.328,0.595,1.328,1.328V79.664z"/>
		<path fill="#F7F9F9" d="M66.693,79.664c0,0.734-0.595,1.328-1.328,1.328l0,0c-0.734,0-1.328-0.595-1.328-1.328v-6.249
			c0-0.734,0.595-1.328,1.328-1.328l0,0c0.734,0,1.328,0.595,1.328,1.328V79.664z"/>
		<path fill="#ECEDEE" d="M66.63,70.648c0,1.071-1.392,1.94-3.108,1.94l0,0c-1.717,0-3.108-0.868-3.108-1.94v-7.974
			c0-1.071,1.392-1.94,3.108-1.94l0,0c1.717,0,3.108,0.868,3.108,1.94V70.648z"/>
		<path fill="#ECEDEE" d="M62.124,61.499c0,0.172-0.14,0.312-0.312,0.312l0,0c-0.172,0-0.312-0.14-0.312-0.312v-3.333
			c0-0.172,0.14-0.312,0.312-0.312l0,0c0.172,0,0.312,0.14,0.312,0.312V61.499z"/>
		<path fill="#ECEDEE" d="M65.365,61.499c0,0.172-0.14,0.312-0.312,0.312l0,0c-0.172,0-0.312-0.14-0.312-0.312v-3.333
			c0-0.172,0.14-0.312,0.312-0.312l0,0c0.172,0,0.312,0.14,0.312,0.312V61.499z"/>
	</g>
	<g display="inline">
		<path fill="#F7F9F9" d="M55.874,73.115c0,0.708-0.735,1.283-1.642,1.283l0,0c-0.907,0-1.642-0.574-1.642-1.283v-5.273
			c0-0.708,0.735-1.283,1.642-1.283l0,0c0.907,0,1.642,0.574,1.642,1.283V73.115z"/>
		<path fill="#F7F9F9" d="M58.23,71.484c0.179,0.345,0.11,0.735-0.153,0.871l0,0c-0.263,0.136-0.621-0.033-0.8-0.377l-1.8-3.474
			c-0.179-0.345-0.11-0.735,0.153-0.871l0,0c0.263-0.136,0.621,0.033,0.8,0.377L58.23,71.484z"/>
		<path fill="#F7F9F9" d="M51.372,72c-0.157,0.355-0.504,0.546-0.775,0.426l0,0c-0.271-0.12-0.363-0.505-0.206-0.86l1.584-3.578
			c0.157-0.355,0.504-0.546,0.775-0.426l0,0c0.271,0.12,0.363,0.505,0.206,0.86L51.372,72z"/>
		<rect x="52.59" y="66.405" fill="#56BEEC" width="3.284" height="1.121"/>
		<circle fill="#F7F9F9" cx="54.03" cy="65.303" r="1.995"/>
		<path fill="#F7F9F9" d="M54.03,78.971c0,0.387-0.314,0.702-0.702,0.702l0,0c-0.387,0-0.702-0.314-0.702-0.702V75.67
			c0-0.387,0.314-0.702,0.702-0.702l0,0c0.387,0,0.702,0.314,0.702,0.702V78.971z"/>
		<path fill="#F7F9F9" d="M55.907,78.971c0,0.387-0.314,0.702-0.702,0.702l0,0c-0.387,0-0.702-0.314-0.702-0.702V75.67
			c0-0.387,0.314-0.702,0.702-0.702l0,0c0.387,0,0.702,0.314,0.702,0.702V78.971z"/>
		<path fill="#ECEDEE" d="M55.874,74.208c0,0.566-0.735,1.025-1.642,1.025l0,0c-0.907,0-1.642-0.459-1.642-1.025v-4.212
			c0-0.566,0.735-1.025,1.642-1.025l0,0c0.907,0,1.642,0.459,1.642,1.025V74.208z"/>
		<path fill="#ECEDEE" d="M53.493,69.375c0,0.091-0.074,0.165-0.165,0.165l0,0c-0.091,0-0.165-0.074-0.165-0.165v-1.76
			c0-0.091,0.074-0.165,0.165-0.165l0,0c0.091,0,0.165,0.074,0.165,0.165V69.375z"/>
		<path fill="#ECEDEE" d="M55.205,69.375c0,0.091-0.074,0.165-0.165,0.165l0,0c-0.091,0-0.165-0.074-0.165-0.165v-1.76
			c0-0.091,0.074-0.165,0.165-0.165l0,0c0.091,0,0.165,0.074,0.165,0.165V69.375z"/>
	</g>
</g>
</svg>
