<?xml version="1.0" encoding="utf-8"?>
<!-- Generator: Adobe Illustrator 17.0.0, SVG Export Plug-In . SVG Version: 6.00 Build 0)  -->
<!DOCTYPE svg PUBLIC "-//W3C//DTD SVG 1.1//EN" "http://www.w3.org/Graphics/SVG/1.1/DTD/svg11.dtd">
<svg version="1.1" id="Layer_1" xmlns="http://www.w3.org/2000/svg" xmlns:xlink="http://www.w3.org/1999/xlink" x="0px" y="0px"
	 width="700px" height="140px" viewBox="0 0 700 140" enable-background="new 0 0 700 140" xml:space="preserve">
<g>
	<circle fill="#56BEEC" stroke="#333333" stroke-miterlimit="10" cx="72" cy="66.016" r="60"/>
	<rect x="32.111" y="36.22" fill="#ECEDEE" width="79.777" height="60.387"/>
	<rect x="36.871" y="51.897" fill="#FFFFFF" width="6.968" height="6.968"/>
	<rect x="36.871" y="62.93" fill="#FFFFFF" width="6.968" height="6.968"/>
	<rect x="36.871" y="74.209" fill="#FFFFFF" width="6.968" height="6.968"/>
	<rect x="36.871" y="84.661" fill="#FFFFFF" width="6.968" height="6.968"/>
	<rect x="47.323" y="84.661" fill="#FFFFFF" width="6.968" height="6.968"/>
	<rect x="58.645" y="84.661" fill="#FFFFFF" width="6.968" height="6.968"/>
	<rect x="69.387" y="84.661" fill="#FFFFFF" width="6.968" height="6.968"/>
	<rect x="80.419" y="84.661" fill="#FFFFFF" width="6.968" height="6.968"/>
	<rect x="90.29" y="84.661" fill="#FFFFFF" width="6.968" height="6.968"/>
	<rect x="101.032" y="84.661" fill="#FFFFFF" width="6.968" height="6.968"/>
	<rect x="90.29" y="74.209" fill="#FFFFFF" width="6.968" height="6.968"/>
	<rect x="80.419" y="74.209" fill="#FFFFFF" width="6.968" height="6.968"/>
	<rect x="69.387" y="74.209" fill="#FFFFFF" width="6.968" height="6.968"/>
	<rect x="58.645" y="74.209" fill="#FFFFFF" width="6.968" height="6.968"/>
	<rect x="47.903" y="74.209" fill="#FFFFFF" width="6.968" height="6.968"/>
	<rect x="47.903" y="62.93" fill="#FFFFFF" width="6.968" height="6.968"/>
	<rect x="47.903" y="51.897" fill="#FFFFFF" width="6.968" height="6.968"/>
	<rect x="58.645" y="62.93" fill="#FFFFFF" width="6.968" height="6.968"/>
	<rect x="58.645" y="51.897" fill="#FFFFFF" width="6.968" height="6.968"/>
	<rect x="69.387" y="51.897" fill="#FFFFFF" width="6.968" height="6.968"/>
	<rect x="69.387" y="62.93" fill="#FFFFFF" width="6.968" height="6.968"/>
	<rect x="80.419" y="62.93" fill="#FFFFFF" width="6.968" height="6.968"/>
	<rect x="80.419" y="51.897" fill="#FFFFFF" width="6.968" height="6.968"/>
	<rect x="90.29" y="62.93" fill="#FFFFFF" width="6.968" height="6.968"/>
	<rect x="90.29" y="51.897" fill="#FFFFFF" width="6.968" height="6.968"/>
	<rect x="101.032" y="74.209" fill="#FFFFFF" width="6.968" height="6.968"/>
	<rect x="101.032" y="62.93" fill="#FFFFFF" width="6.968" height="6.968"/>
	<rect x="101.032" y="51.897" fill="#FFFFFF" width="6.968" height="6.968"/>
	<g enable-background="new    ">
		<path fill="#FFFFFF" d="M52.019,41.311h2.07v0.729h-0.536v4.937c0,0.062-0.015,0.134-0.044,0.217
			c-0.03,0.083-0.068,0.171-0.114,0.264s-0.101,0.188-0.163,0.284c-0.062,0.097-0.124,0.191-0.186,0.284
			c-0.149,0.217-0.317,0.443-0.506,0.679l-0.725-0.062c0.166-0.253,0.314-0.495,0.447-0.726c0.056-0.099,0.111-0.198,0.164-0.301
			c0.054-0.103,0.101-0.202,0.144-0.298c0.042-0.096,0.077-0.185,0.103-0.268c0.027-0.083,0.04-0.153,0.04-0.213V42.04h-0.694
			V41.311z"/>
		<path fill="#FFFFFF" d="M58.645,46.977h0.531l-0.506-1.45h-2.457l-0.493,1.45h0.658v0.725h-2.075v-0.725h0.557l1.99-5.666h1.243
			l1.985,5.666h0.641v0.725h-2.074V46.977z M56.453,44.827h1.973l-0.995-2.857L56.453,44.827z"/>
		<path fill="#FFFFFF" d="M65.317,41.311h2.074v0.729h-0.543v5.661h-1.079l-2.972-5.299v4.574h0.657v0.725H61.38v-0.725h0.59v-4.937
			h-0.607v-0.737h1.72L66,46.55l0.034-0.203v-4.308h-0.717C65.317,42.039,65.317,41.311,65.317,41.311z"/>
		<path fill="#FFFFFF" d="M68.083,41.311h2.069v0.729h-0.653v2.976c0,0.357,0.04,0.661,0.12,0.913s0.191,0.457,0.333,0.615
			c0.142,0.159,0.311,0.274,0.506,0.348s0.41,0.109,0.643,0.109c0.241,0,0.463-0.032,0.666-0.097
			c0.202-0.064,0.375-0.173,0.521-0.326c0.145-0.153,0.257-0.357,0.337-0.611c0.08-0.255,0.12-0.571,0.12-0.951V42.04h-0.691v-0.729
			h2.069v0.729h-0.569v2.883c0,0.461-0.064,0.87-0.192,1.228c-0.128,0.356-0.303,0.656-0.525,0.897s-0.483,0.425-0.784,0.55
			s-0.624,0.188-0.97,0.188c-0.337,0-0.653-0.062-0.946-0.186c-0.293-0.123-0.549-0.305-0.767-0.543
			c-0.218-0.239-0.389-0.531-0.514-0.875c-0.125-0.345-0.188-0.738-0.188-1.183V42.04h-0.585
			C68.083,42.04,68.083,41.311,68.083,41.311z"/>
		<path fill="#FFFFFF" d="M78.524,46.977h0.531l-0.506-1.45h-2.458l-0.493,1.45h0.658v0.725h-2.074v-0.725h0.557l1.99-5.666h1.243
			l1.985,5.666h0.641v0.725h-2.074V46.977z M76.332,44.827h1.973L77.31,41.97L76.332,44.827z"/>
		<path fill="#FFFFFF" d="M81.243,41.311h2.66c0.284,0,0.546,0.038,0.786,0.112c0.24,0.074,0.448,0.184,0.624,0.328
			c0.176,0.146,0.313,0.326,0.411,0.542c0.099,0.217,0.147,0.465,0.147,0.746c0,0.16-0.029,0.318-0.086,0.475
			c-0.058,0.155-0.138,0.301-0.24,0.434c-0.103,0.134-0.224,0.253-0.364,0.356c-0.141,0.104-0.294,0.184-0.459,0.24
			c0.07,0.031,0.141,0.075,0.213,0.133c0.071,0.058,0.139,0.128,0.202,0.211s0.121,0.177,0.173,0.282
			c0.052,0.105,0.093,0.219,0.124,0.339l0.354,1.392h0.552l0.008,0.801h-1.244l-0.476-1.943c-0.087-0.349-0.22-0.604-0.398-0.77
			c-0.179-0.164-0.422-0.246-0.731-0.246h-0.822v2.234h0.641v0.725h-2.074v-0.725h0.607V42.04h-0.607v-0.729H81.243z M82.676,42.041
			v2.011h1.227c0.16,0,0.307-0.021,0.44-0.063c0.133-0.042,0.249-0.105,0.346-0.189s0.173-0.188,0.228-0.314
			c0.055-0.125,0.082-0.27,0.082-0.436c0-0.317-0.095-0.565-0.287-0.742c-0.191-0.177-0.495-0.266-0.91-0.266h-1.126V42.041z"/>
		<path fill="#FFFFFF" d="M87,41.311h2.074v0.729h-0.607l1.202,2.053l1.286-2.053h-0.666v-0.729h2.074v0.729H91.82l-1.796,2.723
			v2.214h0.658v0.725h-2.074v-0.725h0.586v-2.234L87.5,42.041H87V41.311z"/>
	</g>
</g>
<g>
	<circle fill="#56BEEC" stroke="#333333" stroke-miterlimit="10" cx="212" cy="66.016" r="60"/>
	
		<rect x="192.377" y="33.832" transform="matrix(-0.0043 -1 1 -0.0043 147.543 271.9795)" fill="#F7F9F9" stroke="#333333" stroke-width="0.25" stroke-miterlimit="10" width="33.601" height="57.406"/>
	
		<rect x="194.119" y="35.574" transform="matrix(-0.0043 -1 1 -0.0043 147.5508 275.4708)" fill="#F7F9F9" stroke="#333333" stroke-width="0.25" stroke-miterlimit="10" width="33.601" height="57.406"/>
	
		<rect x="196.079" y="37.316" transform="matrix(-0.0043 -1 1 -0.0043 147.7766 279.1797)" fill="#F7F9F9" stroke="#333333" stroke-width="0.25" stroke-miterlimit="10" width="33.601" height="57.406"/>
	
		<rect x="198.039" y="40.059" transform="matrix(-0.0043 -1 1 -0.0043 147.0028 283.8948)" fill="#F7F9F9" stroke="#333333" stroke-width="0.25" stroke-miterlimit="10" width="33.601" height="57.406"/>
	<ellipse fill="#ECEDEE" cx="212.871" cy="66.887" rx="17.001" ry="12.194"/>
	<g enable-background="new    ">
		<path fill="#333333" d="M211.449,75.96v-3.325c-0.681-0.11-1.22-0.32-1.616-0.63s-0.707-0.675-0.935-1.095h-1.229v-1.775h2.592
			v0.113l0.021-0.01c0,0.557,0.192,0.982,0.578,1.274c0.385,0.293,0.957,0.439,1.714,0.439c0.688,0,1.234-0.135,1.637-0.403
			c0.403-0.268,0.604-0.65,0.604-1.146c0-0.255-0.067-0.469-0.201-0.641s-0.303-0.314-0.506-0.429
			c-0.203-0.113-0.429-0.204-0.676-0.273c-0.248-0.068-0.485-0.134-0.713-0.196l-1.817-0.485c-0.393-0.103-0.754-0.238-1.084-0.407
			c-0.33-0.169-0.614-0.377-0.852-0.625s-0.422-0.54-0.553-0.878c-0.131-0.337-0.196-0.729-0.196-1.177
			c0-0.399,0.072-0.77,0.217-1.11s0.354-0.642,0.63-0.903c0.275-0.262,0.614-0.479,1.017-0.65c0.402-0.172,0.858-0.296,1.368-0.371
			v-3.521h2.034v3.531c0.585,0.104,1.091,0.289,1.518,0.558c0.427,0.269,0.771,0.589,1.032,0.96h1.043v1.776h-2.158l-0.238,0.031
			v-0.031h-0.021v-0.228c-0.069-0.447-0.292-0.809-0.671-1.084c-0.378-0.275-0.881-0.413-1.507-0.413
			c-0.75,0-1.322,0.122-1.714,0.367c-0.393,0.244-0.589,0.579-0.589,1.006c0,0.289,0.064,0.521,0.191,0.692
			c0.127,0.172,0.287,0.312,0.48,0.418c0.192,0.106,0.404,0.189,0.635,0.248c0.231,0.059,0.453,0.118,0.666,0.181l1.797,0.547
			c0.454,0.138,0.862,0.295,1.224,0.47c0.361,0.176,0.666,0.381,0.914,0.614c0.248,0.234,0.439,0.507,0.573,0.821
			s0.201,0.68,0.201,1.1c0,0.427-0.081,0.824-0.243,1.192s-0.391,0.697-0.687,0.986s-0.652,0.533-1.069,0.733
			c-0.417,0.199-0.876,0.34-1.378,0.423v3.325h-2.033V75.96z"/>
	</g>
</g>
<g>
	<circle fill="#56BEEC" stroke="#333333" stroke-miterlimit="10" cx="352" cy="66.016" r="60"/>
	<g>
		<path fill="#F7F9F9" d="M356.868,43.82c0,1.932-2.005,3.498-4.478,3.498l0,0c-2.473,0-4.478-1.566-4.478-3.498V29.441
			c0-1.932,2.005-3.498,4.478-3.498l0,0c2.473,0,4.478,1.566,4.478,3.498V43.82z"/>
		<path fill="#F7F9F9" d="M363.294,39.372c0.487,0.94,0.3,2.004-0.418,2.376l0,0c-0.718,0.372-1.694-0.089-2.181-1.029l-4.908-9.474
			c-0.487-0.94-0.3-2.004,0.418-2.376l0,0c0.718-0.372,1.694,0.089,2.181,1.029L363.294,39.372z"/>
		<path fill="#F7F9F9" d="M344.593,40.779c-0.429,0.968-1.375,1.488-2.114,1.161l0,0c-0.739-0.327-0.991-1.377-0.562-2.346
			l4.32-9.756c0.429-0.968,1.375-1.488,2.114-1.161l0,0c0.739,0.327,0.991,1.377,0.562,2.346L344.593,40.779z"/>
		<rect x="347.913" y="25.523" fill="#56BEEC" width="8.955" height="3.056"/>
		<circle fill="#F7F9F9" cx="351.841" cy="22.518" r="5.44"/>
		<path fill="#F7F9F9" d="M351.841,59.788c0,1.057-0.857,1.913-1.913,1.913l0,0c-1.057,0-1.913-0.857-1.913-1.913v-9.002
			c0-1.057,0.857-1.913,1.913-1.913l0,0c1.057,0,1.913,0.857,1.913,1.913V59.788z"/>
		<path fill="#F7F9F9" d="M356.959,59.788c0,1.057-0.857,1.913-1.913,1.913l0,0c-1.057,0-1.913-0.857-1.913-1.913v-9.002
			c0-1.057,0.857-1.913,1.913-1.913l0,0c1.057,0,1.913,0.857,1.913,1.913V59.788z"/>
		<g>
			<rect x="347.546" y="42.803" fill="#ECEDEE" width="4.763" height="11.024"/>
			<rect x="352.664" y="42.803" fill="#ECEDEE" width="4.763" height="11.024"/>
			
				<rect x="349.307" y="41.095" transform="matrix(8.133212e-04 1 -1 8.133212e-04 398.2359 -306.54)" fill="#ECEDEE" width="6.412" height="9.829"/>
		</g>
	</g>
	<g>
		<path fill="#F7F9F9" d="M380.227,57.605c0,1.932-2.005,3.498-4.478,3.498l0,0c-2.473,0-4.477-1.566-4.477-3.498V43.226
			c0-1.932,2.005-3.498,4.477-3.498l0,0c2.473,0,4.478,1.566,4.478,3.498V57.605z"/>
		<path fill="#F7F9F9" d="M386.653,53.157c0.487,0.94,0.3,2.004-0.418,2.376l0,0c-0.718,0.372-1.694-0.089-2.181-1.029l-4.908-9.474
			c-0.487-0.94-0.3-2.004,0.418-2.376l0,0c0.718-0.372,1.694,0.089,2.181,1.029L386.653,53.157z"/>
		<path fill="#F7F9F9" d="M367.952,54.563c-0.429,0.968-1.375,1.488-2.114,1.161l0,0c-0.739-0.327-0.991-1.377-0.562-2.346
			l4.32-9.756c0.429-0.968,1.375-1.488,2.114-1.161l0,0c0.739,0.327,0.991,1.377,0.562,2.346L367.952,54.563z"/>
		<rect x="371.272" y="39.307" fill="#56BEEC" width="8.955" height="3.056"/>
		<circle fill="#F7F9F9" cx="375.2" cy="36.303" r="5.44"/>
		<path fill="#F7F9F9" d="M375.2,73.573c0,1.057-0.857,1.913-1.913,1.913l0,0c-1.057,0-1.913-0.857-1.913-1.913v-9.002
			c0-1.057,0.857-1.913,1.913-1.913l0,0c1.057,0,1.913,0.857,1.913,1.913V73.573z"/>
		<path fill="#F7F9F9" d="M380.318,73.573c0,1.057-0.857,1.913-1.913,1.913l0,0c-1.057,0-1.913-0.857-1.913-1.913v-9.002
			c0-1.057,0.857-1.913,1.913-1.913l0,0c1.057,0,1.913,0.857,1.913,1.913V73.573z"/>
		<g>
			<rect x="370.905" y="56.588" fill="#ECEDEE" width="4.763" height="11.024"/>
			<rect x="376.023" y="56.588" fill="#ECEDEE" width="4.763" height="11.024"/>
			
				<rect x="372.665" y="54.88" transform="matrix(8.133212e-04 1 -1 8.133212e-04 435.3594 -316.1254)" fill="#ECEDEE" width="6.412" height="9.829"/>
		</g>
	</g>
	<g>
		<path fill="#F7F9F9" d="M392.677,63.818c0,1.179-1.224,2.135-2.733,2.135l0,0c-1.509,0-2.733-0.956-2.733-2.135v-8.777
			c0-1.179,1.224-2.135,2.733-2.135l0,0c1.51,0,2.733,0.956,2.733,2.135V63.818z"/>
		<path fill="#F7F9F9" d="M396.599,61.103c0.297,0.574,0.183,1.223-0.255,1.45l0,0c-0.438,0.227-1.034-0.054-1.332-0.628
			l-2.996-5.783c-0.297-0.574-0.183-1.223,0.255-1.45l0,0c0.438-0.227,1.034,0.054,1.332,0.628L396.599,61.103z"/>
		<path fill="#F7F9F9" d="M385.184,61.962c-0.262,0.591-0.84,0.908-1.291,0.708l0,0c-0.451-0.2-0.605-0.841-0.343-1.432l2.637-5.956
			c0.262-0.591,0.84-0.908,1.291-0.708l0,0c0.451,0.2,0.605,0.841,0.343,1.432L385.184,61.962z"/>
		<rect x="387.21" y="52.649" fill="#56BEEC" width="5.466" height="1.865"/>
		<circle fill="#F7F9F9" cx="389.608" cy="50.815" r="3.321"/>
		<path fill="#F7F9F9" d="M389.608,73.565c0,0.645-0.523,1.168-1.168,1.168l0,0c-0.645,0-1.168-0.523-1.168-1.168V68.07
			c0-0.645,0.523-1.168,1.168-1.168l0,0c0.645,0,1.168,0.523,1.168,1.168V73.565z"/>
		<path fill="#F7F9F9" d="M392.732,73.565c0,0.645-0.523,1.168-1.168,1.168l0,0c-0.645,0-1.168-0.523-1.168-1.168V68.07
			c0-0.645,0.523-1.168,1.168-1.168l0,0c0.645,0,1.168,0.523,1.168,1.168V73.565z"/>
		<g>
			<rect x="386.986" y="63.198" fill="#ECEDEE" width="2.908" height="6.729"/>
			<rect x="390.11" y="63.198" fill="#ECEDEE" width="2.908" height="6.729"/>
			<rect x="387.018" y="63.198" fill="#ECEDEE" width="6" height="3.914"/>
		</g>
	</g>
	<g>
		<path fill="#F7F9F9" d="M366.363,100.219c0,1.932-2.005,3.498-4.478,3.498l0,0c-2.473,0-4.478-1.566-4.478-3.498V85.84
			c0-1.932,2.005-3.498,4.478-3.498l0,0c2.473,0,4.478,1.566,4.478,3.498V100.219z"/>
		<path fill="#F7F9F9" d="M372.789,95.771c0.487,0.94,0.3,2.004-0.418,2.376l0,0c-0.718,0.372-1.694-0.089-2.181-1.029l-4.908-9.474
			c-0.487-0.94-0.3-2.004,0.418-2.376l0,0c0.718-0.372,1.694,0.089,2.181,1.029L372.789,95.771z"/>
		<path fill="#F7F9F9" d="M354.088,97.178c-0.429,0.968-1.375,1.488-2.114,1.161l0,0c-0.739-0.327-0.991-1.377-0.562-2.346
			l4.32-9.756c0.429-0.968,1.375-1.488,2.114-1.161l0,0c0.739,0.327,0.991,1.377,0.562,2.346L354.088,97.178z"/>
		<rect x="357.408" y="81.922" fill="#56BEEC" width="8.955" height="3.056"/>
		<circle fill="#F7F9F9" cx="361.336" cy="78.918" r="5.44"/>
		<path fill="#F7F9F9" d="M361.336,116.187c0,1.057-0.857,1.913-1.913,1.913l0,0c-1.057,0-1.913-0.857-1.913-1.913v-9.002
			c0-1.057,0.857-1.913,1.913-1.913l0,0c1.057,0,1.913,0.857,1.913,1.913V116.187z"/>
		<path fill="#F7F9F9" d="M366.454,116.187c0,1.057-0.857,1.913-1.913,1.913l0,0c-1.057,0-1.913-0.857-1.913-1.913v-9.002
			c0-1.057,0.857-1.913,1.913-1.913l0,0c1.057,0,1.913,0.857,1.913,1.913V116.187z"/>
		<g>
			<rect x="357.041" y="99.203" fill="#ECEDEE" width="4.763" height="11.024"/>
			<rect x="362.159" y="99.203" fill="#ECEDEE" width="4.763" height="11.024"/>
			
				<rect x="358.802" y="97.494" transform="matrix(8.133212e-04 1 -1 8.133212e-04 464.1217 -259.6826)" fill="#ECEDEE" width="6.412" height="9.829"/>
		</g>
	</g>
	<g>
		<path fill="#F7F9F9" d="M337.883,43.689c0,1.934-2.007,3.502-4.483,3.502l0,0c-2.476,0-4.483-1.568-4.483-3.502V29.292
			c0-1.934,2.007-3.502,4.483-3.502l0,0c2.476,0,4.483,1.568,4.483,3.502V43.689z"/>
		<path fill="#F7F9F9" d="M344.317,39.235c0.488,0.941,0.301,2.006-0.418,2.379l0,0c-0.719,0.372-1.696-0.089-2.184-1.031
			l-4.914-9.486c-0.488-0.941-0.301-2.006,0.418-2.379l0,0c0.719-0.372,1.696,0.089,2.184,1.031L344.317,39.235z"/>
		<path fill="#F7F9F9" d="M325.593,40.644c-0.429,0.969-1.377,1.49-2.117,1.162l0,0c-0.74-0.328-0.992-1.379-0.563-2.349
			l4.325-9.769c0.429-0.969,1.377-1.49,2.117-1.162l0,0c0.74,0.328,0.992,1.379,0.563,2.349L325.593,40.644z"/>
		<rect x="328.917" y="25.369" fill="#56BEEC" width="8.966" height="3.06"/>
		<circle fill="#F7F9F9" cx="332.85" cy="22.361" r="5.447"/>
		<path fill="#F7F9F9" d="M332.85,59.677c0,1.058-0.858,1.915-1.915,1.915l0,0c-1.058,0-1.915-0.858-1.915-1.915v-9.013
			c0-1.058,0.858-1.915,1.915-1.915l0,0c1.058,0,1.915,0.858,1.915,1.915V59.677z"/>
		<path fill="#F7F9F9" d="M337.974,59.677c0,1.058-0.858,1.915-1.915,1.915l0,0c-1.058,0-1.915-0.858-1.915-1.915v-9.013
			c0-1.058,0.858-1.915,1.915-1.915l0,0c1.058,0,1.915,0.858,1.915,1.915V59.677z"/>
		<path fill="#ECEDEE" d="M337.883,46.674c0,1.545-2.007,2.797-4.483,2.797l0,0c-2.476,0-4.483-1.252-4.483-2.797v-11.5
			c0-1.545,2.007-2.797,4.483-2.797l0,0c2.476,0,4.483,1.252,4.483,2.797V46.674z"/>
		<path fill="#ECEDEE" d="M331.385,33.479c0,0.249-0.202,0.45-0.45,0.45l0,0c-0.249,0-0.45-0.202-0.45-0.45v-4.806
			c0-0.249,0.202-0.45,0.45-0.45l0,0c0.249,0,0.45,0.202,0.45,0.45V33.479z"/>
		<path fill="#ECEDEE" d="M336.059,33.479c0,0.249-0.202,0.45-0.45,0.45l0,0c-0.249,0-0.45-0.202-0.45-0.45v-4.806
			c0-0.249,0.202-0.45,0.45-0.45l0,0c0.249,0,0.45,0.202,0.45,0.45V33.479z"/>
	</g>
	<g>
		<path fill="#F7F9F9" d="M316.659,73.817c0,1.934-2.007,3.502-4.483,3.502l0,0c-2.476,0-4.483-1.568-4.483-3.502V59.42
			c0-1.934,2.007-3.502,4.483-3.502l0,0c2.476,0,4.483,1.568,4.483,3.502V73.817z"/>
		<path fill="#F7F9F9" d="M323.093,69.363c0.488,0.941,0.3,2.006-0.418,2.379l0,0c-0.719,0.372-1.696-0.089-2.184-1.031
			l-4.914-9.486c-0.488-0.941-0.301-2.006,0.418-2.379l0,0c0.719-0.372,1.696,0.089,2.184,1.031L323.093,69.363z"/>
		<path fill="#F7F9F9" d="M304.368,70.772c-0.429,0.969-1.377,1.49-2.117,1.162l0,0c-0.74-0.328-0.992-1.379-0.563-2.349
			l4.325-9.769c0.429-0.969,1.377-1.49,2.117-1.162l0,0c0.74,0.328,0.992,1.379,0.563,2.349L304.368,70.772z"/>
		<rect x="307.693" y="55.497" fill="#56BEEC" width="8.966" height="3.06"/>
		<circle fill="#F7F9F9" cx="311.625" cy="52.489" r="5.447"/>
		<path fill="#F7F9F9" d="M311.625,89.805c0,1.058-0.858,1.915-1.915,1.915l0,0c-1.058,0-1.915-0.858-1.915-1.915v-9.014
			c0-1.058,0.858-1.915,1.915-1.915l0,0c1.058,0,1.915,0.858,1.915,1.915V89.805z"/>
		<path fill="#F7F9F9" d="M316.75,89.805c0,1.058-0.858,1.915-1.915,1.915l0,0c-1.058,0-1.915-0.858-1.915-1.915v-9.014
			c0-1.058,0.858-1.915,1.915-1.915l0,0c1.058,0,1.915,0.858,1.915,1.915V89.805z"/>
		<path fill="#ECEDEE" d="M316.659,76.801c0,1.545-2.007,2.797-4.483,2.797l0,0c-2.476,0-4.483-1.252-4.483-2.797v-11.5
			c0-1.545,2.007-2.797,4.483-2.797l0,0c2.476,0,4.483,1.252,4.483,2.797V76.801z"/>
		<path fill="#ECEDEE" d="M310.16,63.607c0,0.249-0.202,0.45-0.45,0.45l0,0c-0.249,0-0.45-0.202-0.45-0.45v-4.806
			c0-0.249,0.202-0.45,0.45-0.45l0,0c0.249,0,0.45,0.202,0.45,0.45V63.607z"/>
		<path fill="#ECEDEE" d="M314.834,63.607c0,0.249-0.202,0.45-0.45,0.45l0,0c-0.249,0-0.45-0.202-0.45-0.45v-4.806
			c0-0.249,0.202-0.45,0.45-0.45l0,0c0.249,0,0.45,0.202,0.45,0.45V63.607z"/>
	</g>
	<g>
		<path fill="#F7F9F9" d="M344.489,96.811c0,1.934-2.007,3.502-4.483,3.502l0,0c-2.476,0-4.483-1.568-4.483-3.502V82.414
			c0-1.934,2.007-3.502,4.483-3.502l0,0c2.476,0,4.483,1.568,4.483,3.502V96.811z"/>
		<path fill="#F7F9F9" d="M350.923,92.357c0.488,0.941,0.301,2.006-0.418,2.379l0,0c-0.719,0.372-1.696-0.089-2.184-1.031
			l-4.914-9.486c-0.488-0.941-0.301-2.006,0.418-2.379l0,0c0.719-0.372,1.696,0.089,2.184,1.031L350.923,92.357z"/>
		<path fill="#F7F9F9" d="M332.198,93.766c-0.429,0.969-1.377,1.49-2.117,1.162l0,0c-0.74-0.328-0.992-1.379-0.563-2.349
			l4.325-9.769c0.429-0.969,1.377-1.49,2.117-1.162l0,0c0.74,0.328,0.992,1.379,0.563,2.349L332.198,93.766z"/>
		<rect x="335.522" y="78.491" fill="#56BEEC" width="8.966" height="3.06"/>
		<circle fill="#F7F9F9" cx="339.455" cy="75.483" r="5.447"/>
		<path fill="#F7F9F9" d="M339.455,112.799c0,1.058-0.858,1.915-1.915,1.915l0,0c-1.058,0-1.915-0.858-1.915-1.915v-9.013
			c0-1.058,0.858-1.915,1.915-1.915l0,0c1.058,0,1.915,0.858,1.915,1.915V112.799z"/>
		<path fill="#F7F9F9" d="M344.579,112.799c0,1.058-0.858,1.915-1.915,1.915l0,0c-1.058,0-1.915-0.858-1.915-1.915v-9.013
			c0-1.058,0.858-1.915,1.915-1.915l0,0c1.058,0,1.915,0.858,1.915,1.915V112.799z"/>
		<path fill="#ECEDEE" d="M344.489,99.796c0,1.545-2.007,2.797-4.483,2.797l0,0c-2.476,0-4.483-1.252-4.483-2.797v-11.5
			c0-1.545,2.007-2.797,4.483-2.797l0,0c2.476,0,4.483,1.252,4.483,2.797V99.796z"/>
		<path fill="#ECEDEE" d="M337.99,86.601c0,0.249-0.202,0.45-0.45,0.45l0,0c-0.249,0-0.45-0.202-0.45-0.45v-4.806
			c0-0.249,0.202-0.45,0.45-0.45l0,0c0.249,0,0.45,0.202,0.45,0.45V86.601z"/>
		<path fill="#ECEDEE" d="M342.664,86.601c0,0.249-0.202,0.45-0.45,0.45l0,0c-0.249,0-0.45-0.202-0.45-0.45v-4.806
			c0-0.249,0.202-0.45,0.45-0.45l0,0c0.249,0,0.45,0.202,0.45,0.45V86.601z"/>
	</g>
</g>
<g>
	<circle fill="#56BEEC" stroke="#333333" stroke-miterlimit="10" cx="492" cy="66.016" r="60"/>
	<g>
		<path fill="#F7F9F9" d="M493.741,20.004c0,1.682-1.363,3.045-3.045,3.045l0,0c-1.682,0-3.045-1.363-3.045-3.045V9.697
			c0-1.682,1.363-3.045,3.045-3.045l0,0c1.682,0,3.045,1.363,3.045,3.045V20.004z"/>
		<path fill="#ECEDEE" d="M493.741,23.049c0,0.328-0.266,0.594-0.594,0.594h-4.902c-0.328,0-0.594-0.266-0.594-0.594l0,0
			c0-0.328,0.266-0.594,0.594-0.594h4.902C493.475,22.455,493.741,22.721,493.741,23.049L493.741,23.049z"/>
		<path fill="#F7F9F9" d="M493.741,36.996c0,1.682-1.363,3.045-3.045,3.045l0,0c-1.682,0-3.045-1.363-3.045-3.045V26.689
			c0-1.682,1.363-3.045,3.045-3.045l0,0c1.682,0,3.045,1.363,3.045,3.045V36.996z"/>
		<path fill="#ECEDEE" d="M493.741,40.042c0,0.328-0.266,0.594-0.594,0.594h-4.902c-0.328,0-0.594-0.266-0.594-0.594l0,0
			c0-0.328,0.266-0.594,0.594-0.594h4.902C493.475,39.447,493.741,39.713,493.741,40.042L493.741,40.042z"/>
		<path fill="#F7F9F9" d="M493.741,53.394c0,1.682-1.363,3.045-3.045,3.045l0,0c-1.682,0-3.045-1.363-3.045-3.045V43.087
			c0-1.682,1.363-3.045,3.045-3.045l0,0c1.682,0,3.045,1.363,3.045,3.045V53.394z"/>
		<path fill="#ECEDEE" d="M493.741,56.439c0,0.328-0.266,0.594-0.594,0.594h-4.902c-0.328,0-0.594-0.266-0.594-0.594l0,0
			c0-0.328,0.266-0.594,0.594-0.594h4.902C493.475,55.845,493.741,56.111,493.741,56.439L493.741,56.439z"/>
		<path fill="#F7F9F9" d="M493.741,69.792c0,1.682-1.363,3.045-3.045,3.045l0,0c-1.682,0-3.045-1.363-3.045-3.045V59.485
			c0-1.682,1.363-3.045,3.045-3.045l0,0c1.682,0,3.045,1.363,3.045,3.045V69.792z"/>
		<path fill="#ECEDEE" d="M493.741,72.837c0,0.328-0.266,0.594-0.594,0.594h-4.902c-0.328,0-0.594-0.266-0.594-0.594l0,0
			c0-0.328,0.266-0.594,0.594-0.594h4.902C493.475,72.243,493.741,72.509,493.741,72.837L493.741,72.837z"/>
		<path fill="#F7F9F9" d="M493.741,86.784c0,1.682-1.363,3.045-3.045,3.045l0,0c-1.682,0-3.045-1.363-3.045-3.045V76.477
			c0-1.682,1.363-3.045,3.045-3.045l0,0c1.682,0,3.045,1.363,3.045,3.045V86.784z"/>
		<path fill="#ECEDEE" d="M493.741,89.829c0,0.328-0.266,0.594-0.594,0.594h-4.902c-0.328,0-0.594-0.266-0.594-0.594l0,0
			c0-0.328,0.266-0.594,0.594-0.594h4.902C493.475,89.235,493.741,89.501,493.741,89.829L493.741,89.829z"/>
		<path fill="#F7F9F9" d="M493.741,120.89c0,1.682-1.363,3.045-3.045,3.045l0,0c-1.682,0-3.045-1.363-3.045-3.045v-10.307
			c0-1.682,1.363-3.045,3.045-3.045l0,0c1.682,0,3.045,1.363,3.045,3.045V120.89z"/>
		<path fill="#ECEDEE" d="M493.741,123.935c0,0.328-0.266,0.594-0.594,0.594h-4.902c-0.328,0-0.594-0.266-0.594-0.594l0,0
			c0-0.328,0.266-0.594,0.594-0.594h4.902C493.475,123.341,493.741,123.607,493.741,123.935L493.741,123.935z"/>
		<path fill="#F7F9F9" d="M493.741,103.776c0,1.682-1.363,3.045-3.045,3.045l0,0c-1.682,0-3.045-1.363-3.045-3.045V93.469
			c0-1.682,1.363-3.045,3.045-3.045l0,0c1.682,0,3.045,1.363,3.045,3.045V103.776z"/>
		<path fill="#ECEDEE" d="M493.741,106.821c0,0.328-0.266,0.594-0.594,0.594h-4.902c-0.328,0-0.594-0.266-0.594-0.594l0,0
			c0-0.328,0.266-0.594,0.594-0.594h4.902C493.475,106.227,493.741,106.493,493.741,106.821L493.741,106.821z"/>
	</g>
	<path fill="#ECEDEE" d="M453.183,40.528c0,0.328-0.266,0.594-0.594,0.594h-4.902c-0.328,0-0.594-0.266-0.594-0.594l0,0
		c0-0.328,0.266-0.594,0.594-0.594h4.902C452.917,39.934,453.183,40.2,453.183,40.528L453.183,40.528z"/>
	<path fill="#ECEDEE" d="M453.183,56.926c0,0.328-0.266,0.594-0.594,0.594h-4.902c-0.328,0-0.594-0.266-0.594-0.594l0,0
		c0-0.328,0.266-0.594,0.594-0.594h4.902C452.917,56.331,453.183,56.598,453.183,56.926L453.183,56.926z"/>
	<path fill="#ECEDEE" d="M453.183,73.324c0,0.328-0.266,0.594-0.594,0.594h-4.902c-0.328,0-0.594-0.266-0.594-0.594l0,0
		c0-0.328,0.266-0.594,0.594-0.594h4.902C452.917,72.729,453.183,72.995,453.183,73.324L453.183,73.324z"/>
	<path fill="#F7F9F9" d="M453.183,37.802c0,1.505-1.363,2.726-3.045,2.726l0,0c-1.682,0-3.045-1.22-3.045-2.726v-9.225
		c0-1.505,1.363-2.726,3.045-2.726l0,0c1.682,0,3.045,1.22,3.045,2.726V37.802z"/>
	<path fill="#F7F9F9" d="M453.183,53.88c0,1.682-1.363,3.045-3.045,3.045l0,0c-1.682,0-3.045-1.363-3.045-3.045V43.573
		c0-1.682,1.363-3.045,3.045-3.045l0,0c1.682,0,3.045,1.363,3.045,3.045V53.88z"/>
	<path fill="#F7F9F9" d="M453.183,70.278c0,1.682-1.363,3.045-3.045,3.045l0,0c-1.682,0-3.045-1.363-3.045-3.045V59.971
		c0-1.682,1.363-3.045,3.045-3.045l0,0c1.682,0,3.045,1.363,3.045,3.045V70.278z"/>
	<path fill="#F7F9F9" d="M453.183,87.27c0,1.682-1.363,3.045-3.045,3.045l0,0c-1.682,0-3.045-1.363-3.045-3.045V76.963
		c0-1.682,1.363-3.045,3.045-3.045l0,0c1.682,0,3.045,1.363,3.045,3.045V87.27z"/>
	<path fill="#ECEDEE" d="M453.183,90.316c0,0.328-0.266,0.594-0.594,0.594h-4.902c-0.328,0-0.594-0.266-0.594-0.594l0,0
		c0-0.328,0.266-0.594,0.594-0.594h4.902C452.917,89.721,453.183,89.987,453.183,90.316L453.183,90.316z"/>
	<path fill="#F7F9F9" d="M453.183,103.729c0,1.615-1.363,2.924-3.045,2.924l0,0c-1.682,0-3.045-1.309-3.045-2.924v-9.895
		c0-1.615,1.363-2.924,3.045-2.924l0,0c1.682,0,3.045,1.309,3.045,2.924V103.729z"/>
	<path fill="#ECEDEE" d="M532.878,39.435c0,0.349-0.266,0.632-0.594,0.632h-4.902c-0.328,0-0.594-0.283-0.594-0.632l0,0
		c0-0.349,0.266-0.632,0.594-0.632h4.902C532.612,38.803,532.878,39.086,532.878,39.435L532.878,39.435z"/>
	<path fill="#F7F9F9" d="M532.878,53.634c0,1.788-1.363,3.238-3.045,3.238l0,0c-1.682,0-3.045-1.45-3.045-3.238v-10.96
		c0-1.788,1.363-3.238,3.045-3.238l0,0c1.682,0,3.045,1.45,3.045,3.238V53.634z"/>
	<path fill="#ECEDEE" d="M532.878,56.872c0,0.349-0.266,0.632-0.594,0.632h-4.902c-0.328,0-0.594-0.283-0.594-0.632l0,0
		c0-0.349,0.266-0.632,0.594-0.632h4.902C532.612,56.24,532.878,56.523,532.878,56.872L532.878,56.872z"/>
	<path fill="#F7F9F9" d="M532.878,71.071c0,1.788-1.363,3.238-3.045,3.238l0,0c-1.682,0-3.045-1.45-3.045-3.238v-10.96
		c0-1.788,1.363-3.238,3.045-3.238l0,0c1.682,0,3.045,1.45,3.045,3.238V71.071z"/>
	<path fill="#ECEDEE" d="M532.878,74.309c0,0.349-0.266,0.632-0.594,0.632h-4.902c-0.328,0-0.594-0.283-0.594-0.632l0,0
		c0-0.349,0.266-0.632,0.594-0.632h4.902C532.612,73.677,532.878,73.96,532.878,74.309L532.878,74.309z"/>
	<path fill="#F7F9F9" d="M532.878,89.14c0,1.788-1.363,3.238-3.045,3.238l0,0c-1.682,0-3.045-1.45-3.045-3.238V78.18
		c0-1.788,1.363-3.238,3.045-3.238l0,0c1.682,0,3.045,1.45,3.045,3.238V89.14z"/>
	<path fill="#ECEDEE" d="M532.878,92.378c0,0.349-0.266,0.632-0.594,0.632h-4.902c-0.328,0-0.594-0.283-0.594-0.632l0,0
		c0-0.349,0.266-0.632,0.594-0.632h4.902C532.612,91.746,532.878,92.029,532.878,92.378L532.878,92.378z"/>
	<path fill="#F7F9F9" d="M532.878,107.209c0,1.788-1.363,3.238-3.045,3.238l0,0c-1.682,0-3.045-1.45-3.045-3.238v-10.96
		c0-1.788,1.363-3.238,3.045-3.238l0,0c1.682,0,3.045,1.45,3.045,3.238V107.209z"/>
	<path fill="#F7F9F9" d="M532.878,36.104c0,1.84-1.363,3.331-3.045,3.331l0,0c-1.682,0-3.045-1.492-3.045-3.331V24.828
		c0-1.84,1.363-3.331,3.045-3.331l0,0c1.682,0,3.045,1.492,3.045,3.331V36.104z"/>
</g>
<g>
	<circle fill="#56BEEC" stroke="#333333" stroke-miterlimit="10" cx="632" cy="66.016" r="60"/>
	<g>
		<path fill="#F7F9F9" d="M662.556,78.846c0,1.386-1.439,2.51-3.214,2.51l0,0c-1.775,0-3.214-1.124-3.214-2.51v-10.32
			c0-1.386,1.439-2.51,3.214-2.51l0,0c1.775,0,3.214,1.124,3.214,2.51V78.846z"/>
		<path fill="#F7F9F9" d="M667.168,75.654c0.35,0.675,0.215,1.438-0.3,1.705l0,0c-0.515,0.267-1.216-0.064-1.566-0.739l-3.523-6.8
			c-0.35-0.675-0.215-1.438,0.3-1.705l0,0c0.515-0.267,1.216,0.064,1.566,0.739L667.168,75.654z"/>
		<path fill="#F7F9F9" d="M653.745,76.664c-0.308,0.695-0.987,1.068-1.518,0.833l0,0c-0.53-0.235-0.711-0.989-0.403-1.684l3.1-7.003
			c0.308-0.695,0.987-1.068,1.518-0.833l0,0c0.53,0.235,0.711,0.989,0.403,1.684L653.745,76.664z"/>
		<rect x="656.128" y="65.714" fill="#56BEEC" width="6.427" height="2.193"/>
		<circle fill="#F7F9F9" cx="658.948" cy="63.558" r="3.905"/>
		<path fill="#F7F9F9" d="M658.948,90.307c0,0.758-0.615,1.373-1.373,1.373l0,0c-0.758,0-1.373-0.615-1.373-1.373v-6.461
			c0-0.758,0.615-1.373,1.373-1.373l0,0c0.758,0,1.373,0.615,1.373,1.373V90.307z"/>
		<path fill="#F7F9F9" d="M662.621,90.307c0,0.758-0.615,1.373-1.373,1.373l0,0c-0.758,0-1.373-0.615-1.373-1.373v-6.461
			c0-0.758,0.615-1.373,1.373-1.373l0,0c0.758,0,1.373,0.615,1.373,1.373V90.307z"/>
		<g>
			<rect x="655.865" y="78.117" fill="#ECEDEE" width="3.419" height="7.913"/>
			<rect x="659.538" y="78.117" fill="#ECEDEE" width="3.419" height="7.913"/>
			<rect x="655.902" y="78.117" fill="#ECEDEE" width="7.055" height="4.602"/>
		</g>
	</g>
	<g>
		<path fill="#F7F9F9" d="M605.222,77.434c0,1.634-1.696,2.959-3.787,2.959l0,0c-2.092,0-3.787-1.325-3.787-2.959V65.271
			c0-1.634,1.696-2.959,3.787-2.959l0,0c2.092,0,3.787,1.325,3.787,2.959V77.434z"/>
		<path fill="#F7F9F9" d="M610.657,73.671c0.412,0.795,0.254,1.695-0.353,2.009l0,0c-0.607,0.314-1.433-0.075-1.845-0.871
			l-4.152-8.014c-0.412-0.795-0.254-1.695,0.353-2.009l0,0c0.607-0.314,1.433,0.075,1.845,0.871L610.657,73.671z"/>
		<path fill="#F7F9F9" d="M594.838,74.861c-0.363,0.819-1.163,1.259-1.789,0.982l0,0c-0.625-0.277-0.838-1.165-0.475-1.984
			l3.654-8.253c0.363-0.819,1.163-1.259,1.789-0.982l0,0c0.625,0.277,0.838,1.165,0.475,1.984L594.838,74.861z"/>
		<rect x="597.647" y="61.957" fill="#56BEEC" width="7.575" height="2.585"/>
		<circle fill="#F7F9F9" cx="600.969" cy="59.415" r="4.602"/>
		<path fill="#F7F9F9" d="M600.969,90.941c0,0.894-0.724,1.618-1.618,1.618l0,0c-0.894,0-1.618-0.725-1.618-1.618v-7.615
			c0-0.894,0.725-1.618,1.618-1.618l0,0c0.894,0,1.618,0.725,1.618,1.618V90.941z"/>
		<path fill="#F7F9F9" d="M605.298,90.941c0,0.894-0.724,1.618-1.618,1.618l0,0c-0.894,0-1.618-0.725-1.618-1.618v-7.615
			c0-0.894,0.725-1.618,1.618-1.618l0,0c0.894,0,1.618,0.725,1.618,1.618V90.941z"/>
		<g>
			<rect x="597.336" y="76.574" fill="#ECEDEE" width="4.029" height="9.325"/>
			<rect x="601.665" y="76.574" fill="#ECEDEE" width="4.029" height="9.325"/>
			<rect x="597.38" y="76.574" fill="#ECEDEE" width="8.314" height="5.424"/>
		</g>
	</g>
	<g>
		<path fill="#F7F9F9" d="M643.014,68.256c0,2.747-2.85,4.973-6.367,4.973l0,0c-3.516,0-6.367-2.227-6.367-4.973V47.811
			c0-2.747,2.85-4.973,6.367-4.973l0,0c3.516,0,6.367,2.227,6.367,4.973V68.256z"/>
		<path fill="#F7F9F9" d="M652.151,61.932c0.693,1.337,0.427,2.849-0.594,3.378l0,0c-1.02,0.529-2.409-0.127-3.102-1.463
			l-6.979-13.471c-0.693-1.337-0.427-2.849,0.594-3.378l0,0c1.021-0.529,2.409,0.127,3.102,1.463L652.151,61.932z"/>
		<path fill="#F7F9F9" d="M625.56,63.932c-0.61,1.377-1.956,2.116-3.006,1.65l0,0c-1.051-0.465-1.409-1.959-0.799-3.335
			l6.142-13.873c0.61-1.377,1.956-2.116,3.006-1.65l0,0c1.051,0.465,1.409,1.959,0.799,3.335L625.56,63.932z"/>
		<rect x="630.281" y="42.239" fill="#56BEEC" width="12.733" height="4.345"/>
		<circle fill="#F7F9F9" cx="635.866" cy="37.968" r="7.736"/>
		<path fill="#F7F9F9" d="M635.866,90.961c0,1.502-1.218,2.72-2.72,2.72l0,0c-1.502,0-2.72-1.218-2.72-2.72v-12.8
			c0-1.502,1.218-2.72,2.72-2.72l0,0c1.502,0,2.72,1.218,2.72,2.72V90.961z"/>
		<path fill="#F7F9F9" d="M643.143,90.961c0,1.502-1.218,2.72-2.72,2.72l0,0c-1.502,0-2.72-1.218-2.72-2.72v-12.8
			c0-1.502,1.218-2.72,2.72-2.72l0,0c1.502,0,2.72,1.218,2.72,2.72V90.961z"/>
		<path fill="#ECEDEE" d="M643.014,72.495c0,2.194-2.85,3.973-6.367,3.973l0,0c-3.516,0-6.367-1.779-6.367-3.973V56.163
			c0-2.194,2.85-3.973,6.367-3.973l0,0c3.516,0,6.367,1.779,6.367,3.973V72.495z"/>
		<path fill="#ECEDEE" d="M633.785,53.757c0,0.353-0.286,0.639-0.639,0.639l0,0c-0.353,0-0.639-0.286-0.639-0.639v-6.826
			c0-0.353,0.286-0.639,0.639-0.639l0,0c0.353,0,0.639,0.286,0.639,0.639V53.757z"/>
		<path fill="#ECEDEE" d="M640.423,53.757c0,0.353-0.286,0.639-0.639,0.639l0,0c-0.353,0-0.639-0.286-0.639-0.639v-6.826
			c0-0.353,0.286-0.639,0.639-0.639l0,0c0.353,0,0.639,0.286,0.639,0.639V53.757z"/>
	</g>
	<g>
		<path fill="#F7F9F9" d="M620.983,77.548c0,1.451-1.506,2.627-3.363,2.627l0,0c-1.857,0-3.363-1.176-3.363-2.627v-10.8
			c0-1.451,1.506-2.627,3.363-2.627l0,0c1.857,0,3.363,1.176,3.363,2.627V77.548z"/>
		<path fill="#F7F9F9" d="M625.809,74.207c0.366,0.706,0.225,1.505-0.314,1.784l0,0c-0.539,0.279-1.273-0.067-1.638-0.773
			l-3.686-7.116c-0.366-0.706-0.225-1.505,0.314-1.784l0,0c0.539-0.279,1.273,0.067,1.638,0.773L625.809,74.207z"/>
		<path fill="#F7F9F9" d="M611.763,75.264c-0.322,0.727-1.033,1.118-1.588,0.872l0,0c-0.555-0.246-0.744-1.035-0.422-1.762
			l3.245-7.328c0.322-0.727,1.033-1.118,1.588-0.872l0,0c0.555,0.246,0.744,1.035,0.422,1.762L611.763,75.264z"/>
		<rect x="614.257" y="63.805" fill="#56BEEC" width="6.726" height="2.295"/>
		<circle fill="#F7F9F9" cx="617.207" cy="61.549" r="4.086"/>
		<path fill="#F7F9F9" d="M617.207,89.541c0,0.794-0.643,1.437-1.437,1.437l0,0c-0.794,0-1.437-0.643-1.437-1.437V82.78
			c0-0.794,0.643-1.437,1.437-1.437l0,0c0.794,0,1.437,0.643,1.437,1.437V89.541z"/>
		<path fill="#F7F9F9" d="M621.051,89.541c0,0.794-0.643,1.437-1.437,1.437l0,0c-0.794,0-1.437-0.643-1.437-1.437V82.78
			c0-0.794,0.643-1.437,1.437-1.437l0,0c0.794,0,1.437,0.643,1.437,1.437V89.541z"/>
		<path fill="#ECEDEE" d="M620.983,79.787c0,1.159-1.506,2.098-3.363,2.098l0,0c-1.857,0-3.363-0.94-3.363-2.098V71.16
			c0-1.159,1.506-2.098,3.363-2.098l0,0c1.857,0,3.363,0.94,3.363,2.098V79.787z"/>
		<path fill="#ECEDEE" d="M616.108,69.889c0,0.187-0.151,0.338-0.338,0.338l0,0c-0.187,0-0.338-0.151-0.338-0.338v-3.605
			c0-0.187,0.151-0.338,0.338-0.338l0,0c0.187,0,0.338,0.151,0.338,0.338V69.889z"/>
		<path fill="#ECEDEE" d="M619.614,69.889c0,0.187-0.151,0.338-0.338,0.338l0,0c-0.187,0-0.338-0.151-0.338-0.338v-3.605
			c0-0.187,0.151-0.338,0.338-0.338l0,0c0.187,0,0.338,0.151,0.338,0.338V69.889z"/>
	</g>
</g>
</svg>
